<svg id="Layer_1" data-name="Layer 1" xmlns="http://www.w3.org/2000/svg" viewBox="0 0 290.4 209.4"><defs><style>.cls-1{fill:#7f7f7f;}.cls-2{fill:#999;}</style></defs><title>bii-logo(grey)</title><path class="cls-1" d="M65.8,43L65.7,31.1,69,31a4.48,4.48,0,0,1,1.1.1,2.22,2.22,0,0,1,1.1.5,2.36,2.36,0,0,1,.8.9,3.34,3.34,0,0,1,.3,1.5,3.45,3.45,0,0,1-.5,1.8,3.13,3.13,0,0,1-1.1.9h0a1.42,1.42,0,0,1,.6.2,1.17,1.17,0,0,1,.6.6,7.26,7.26,0,0,1,.5.9,3.73,3.73,0,0,1,.2,1.2,3.81,3.81,0,0,1-.3,1.6,2.72,2.72,0,0,1-.8,1,2.38,2.38,0,0,1-1.1.6,2,2,0,0,1-1.1.2H65.8Zm2-1.7,1.2-.1a1.7,1.7,0,0,0,.7-0.1,2.19,2.19,0,0,0,.5-0.3,1,1,0,0,0,.4-0.5,2,2,0,0,0,.1-0.8,2.92,2.92,0,0,0-.2-0.9,2.09,2.09,0,0,0-.4-0.6,1.69,1.69,0,0,0-.6-0.3,1.27,1.27,0,0,0-.6-0.1H67.7l0.1,3.7h0Zm0-5.2,1.1-.1a1.27,1.27,0,0,0,.6-0.1,1.73,1.73,0,0,0,.9-0.8,1.7,1.7,0,0,0,.1-0.7,1.48,1.48,0,0,0-.1-0.7,1,1,0,0,0-.4-0.5,2.19,2.19,0,0,0-.5-0.3,1.27,1.27,0,0,0-.6-0.1h-1l-0.1,3.3h0Z"/><path class="cls-1" d="M74.9,47H74.2a4.33,4.33,0,0,1-.5-0.1l0.2-1.8h0.8a0.6,0.6,0,0,0,.6-0.3,1.49,1.49,0,0,0,.3-0.7L75.9,43l-2.5-8.7,2-.1,1.5,6.5,1.3-6.4h2l-2.5,9.8a5.64,5.64,0,0,1-.4,1.2,2,2,0,0,1-.6.9,1.56,1.56,0,0,1-.8.6A1.5,1.5,0,0,1,74.9,47Z"/><path class="cls-1" d="M87.2,43.3a3.42,3.42,0,0,1-1.8-.4,5,5,0,0,1-1.4-1l1.1-1.5a3.59,3.59,0,0,0,1,.7,2.28,2.28,0,0,0,1.1.3,1.28,1.28,0,0,0,1-.4,1.59,1.59,0,0,0,.4-1.2,1.66,1.66,0,0,0-.5-1.2,4.11,4.11,0,0,0-1.3-.8c-0.3-.2-0.6-0.3-0.9-0.5a5,5,0,0,1-.8-0.7,4.05,4.05,0,0,1-.5-0.9,4.44,4.44,0,0,1-.2-1.3,3.81,3.81,0,0,1,.3-1.6,4.44,4.44,0,0,1,.8-1.1,4.13,4.13,0,0,1,1.1-.7,5,5,0,0,1,1.2-.2,3.81,3.81,0,0,1,1.6.3,2.73,2.73,0,0,1,1.2.9l-1.1,1.5a2.29,2.29,0,0,0-1.7-.8,0.75,0.75,0,0,0-.5.1c-0.2.1-.3,0.2-0.5,0.3a2.19,2.19,0,0,0-.3.5,1.7,1.7,0,0,0-.1.7,1.25,1.25,0,0,0,.4,1.1,6.22,6.22,0,0,0,1.2.8,4.05,4.05,0,0,1,.9.5,2.7,2.7,0,0,1,.8.7,3.33,3.33,0,0,1,.6,1,5.07,5.07,0,0,1,.2,1.3,4.15,4.15,0,0,1-.3,1.6,2.26,2.26,0,0,1-.8,1.1,4.13,4.13,0,0,1-1.1.7A2.68,2.68,0,0,1,87.2,43.3Z"/><path class="cls-1" d="M95.2,43.3a3.19,3.19,0,0,1-1.4-.3,3.13,3.13,0,0,1-1.1-.9,5.23,5.23,0,0,1-.7-1.5,5.84,5.84,0,0,1-.2-1.9,11.08,11.08,0,0,1,.2-1.9,5.23,5.23,0,0,1,.7-1.5,2.44,2.44,0,0,1,1.1-.9,3.42,3.42,0,0,1,2.8,0,3.13,3.13,0,0,1,1.1.9,5.23,5.23,0,0,1,.7,1.5,5.84,5.84,0,0,1,.2,1.9,11.08,11.08,0,0,1-.2,1.9,5.23,5.23,0,0,1-.7,1.5,2.44,2.44,0,0,1-1.1.9A3.19,3.19,0,0,1,95.2,43.3Zm0-7.5a1.42,1.42,0,0,0-.6.2,0.92,0.92,0,0,0-.4.6,2.92,2.92,0,0,0-.2.9,3.75,3.75,0,0,0-.1,1.1,3.75,3.75,0,0,0,.1,1.1,6.37,6.37,0,0,0,.2.9,2.09,2.09,0,0,0,.4.6,1,1,0,0,0,1.2,0,0.92,0.92,0,0,0,.4-0.6,2.92,2.92,0,0,0,.2-0.9,4.1,4.1,0,0,0,.1-1.1,3.75,3.75,0,0,0-.1-1.1,2.39,2.39,0,0,0-.3-0.9,1.54,1.54,0,0,0-.4-0.6A0.76,0.76,0,0,0,95.2,35.8Z"/><path class="cls-1" d="M102.9,43.3a3.19,3.19,0,0,1-1.4-.3,2.41,2.41,0,0,1-1-1,3.39,3.39,0,0,1-.6-1.5,11.08,11.08,0,0,1-.2-1.9,11.08,11.08,0,0,1,.2-1.9,5.21,5.21,0,0,1,.6-1.5,2.84,2.84,0,0,1,1-.9,3.19,3.19,0,0,1,1.4-.3,3.73,3.73,0,0,1,1.2.2,5.58,5.58,0,0,1,.8.5l-0.8,1.5c-0.2-.1-0.3-0.2-0.5-0.3a1.08,1.08,0,0,0-.6-0.1,1,1,0,0,0-1,.7,5.44,5.44,0,0,0-.4,2,4,4,0,0,0,.4,2,1.08,1.08,0,0,0,1.1.7,1.27,1.27,0,0,0,.6-0.1,0.78,0.78,0,0,0,.4-0.4l0.9,1.5a2.18,2.18,0,0,1-.9.7A1.59,1.59,0,0,1,102.9,43.3Z"/><path class="cls-1" d="M106.1,43L106,34.4l1.9-.1L108,43h-1.9Zm0.9-9.8a0.91,0.91,0,0,1-.8-0.4,1.22,1.22,0,0,1-.3-0.9,1.61,1.61,0,0,1,.3-0.9,1.23,1.23,0,0,1,.8-0.4,0.91,0.91,0,0,1,.8.4,1.22,1.22,0,0,1,.3.9,1.61,1.61,0,0,1-.3.9A0.81,0.81,0,0,1,107,33.2Z"/><path class="cls-1" d="M111.8,43.2a2.49,2.49,0,0,1-.8-0.1,1.16,1.16,0,0,1-.7-0.5,2.18,2.18,0,0,1-.5-0.8,3.73,3.73,0,0,1-.2-1.2,3.34,3.34,0,0,1,.3-1.5,2,2,0,0,1,.9-0.9,3.34,3.34,0,0,1,1.2-.5,4.87,4.87,0,0,1,1.2-.1h0.5l-0.1-.2a1.74,1.74,0,0,0-.3-1.2,1.27,1.27,0,0,0-.9-0.4,2.92,2.92,0,0,0-.9.2,1.34,1.34,0,0,0-.7.6l-1-1.2a2.34,2.34,0,0,1,1.2-1,3.93,3.93,0,0,1,1.4-.3,3.19,3.19,0,0,1,1.4.3,2.18,2.18,0,0,1,.9.7,3.34,3.34,0,0,1,.5,1.2,8.08,8.08,0,0,1,.1,1.6V43l-1.6.1-0.1-1.3a1.36,1.36,0,0,1-.6,1.1A1.74,1.74,0,0,1,111.8,43.2Zm1.4-4.2a1.7,1.7,0,0,0-.7.1,1.42,1.42,0,0,0-.6.2,1.51,1.51,0,0,0-.4.4,2,2,0,0,0,.2,1.7,0.86,0.86,0,0,0,.6.3,1.07,1.07,0,0,0,.6-0.2,1,1,0,0,0,.4-0.5,1.85,1.85,0,0,0,.2-0.7c0-.3.1-0.5,0.1-0.8V39h-0.4Z"/><polygon class="cls-1" points="117.5 43 117.5 30.3 119.4 30.2 119.5 43 117.5 43"/><polygon class="cls-1" points="32.1 60.5 32 48.6 37.4 48.5 37.5 50.4 34 50.4 34.1 53.5 37.2 53.5 37.2 55.2 34 55.2 34.1 58.7 37.6 58.6 37.6 60.5 32.1 60.5"/><path class="cls-1" d="M43.7,60.5l-0.1-5.4V54.5c0-.2-0.1-0.4-0.1-0.6a1.38,1.38,0,0,0-.3-0.4,0.75,0.75,0,0,0-.5-0.1,1.22,1.22,0,0,0-1,.6,3.41,3.41,0,0,0-.4,1.6v4.9l-1.9.1L39.3,52l1.9-.1,0.1,1.4a1.85,1.85,0,0,1,.7-1.2,2.17,2.17,0,0,1,1.4-.5,2.13,2.13,0,0,1,1.2.3,2.7,2.7,0,0,1,.7.8,2,2,0,0,1,.3,1.1,5.7,5.7,0,0,1,.1,1.3v5.4h-2Z"/><path class="cls-1" d="M50,60.7a1.75,1.75,0,0,1-1.6-.7,3.31,3.31,0,0,1-.5-1.9V53.3l-1,.1-0.1-1.5,1.1-.1-0.1-2.1,1.8-.1,0.1,2.2,1.4-.1,0.1,1.5-1.5.1,0.1,4.3a2.15,2.15,0,0,0,.2,1,0.6,0.6,0,0,0,.6.3h0.3c0.1,0,.2-0.1.3-0.1l0.1,1.5a1.42,1.42,0,0,1-.6.2A1.08,1.08,0,0,1,50,60.7Z"/><path class="cls-1" d="M52.6,60.5l-0.1-8.6,1.9-.1,0.1,1.7a2.62,2.62,0,0,1,.6-1.5,1.61,1.61,0,0,1,1.1-.5h0.3l-0.1,2H55.9a1.42,1.42,0,0,0-.6.2,1.58,1.58,0,0,0-.5.6,6.89,6.89,0,0,0-.3.8,2.77,2.77,0,0,0-.1.9v4.3H52.6v0.2Z"/><path class="cls-1" d="M60.4,60.8A2.85,2.85,0,0,1,58,59.6a5.51,5.51,0,0,1-.9-3.4,11.08,11.08,0,0,1,.2-1.9,5.23,5.23,0,0,1,.7-1.5,2.84,2.84,0,0,1,1-.9,3.19,3.19,0,0,1,1.4-.3,2.9,2.9,0,0,1,1.4.3,2.84,2.84,0,0,1,1,.9,5.78,5.78,0,0,1,.5,1.4,8.81,8.81,0,0,1,.2,1.7v0.7l-4.5.1c0.1,0.3.1,0.6,0.2,0.9s0.2,0.5.3,0.8a1.21,1.21,0,0,0,.5.5,1.42,1.42,0,0,0,.6.2,1.14,1.14,0,0,0,.8-0.3,2.18,2.18,0,0,0,.5-0.8l1.5,0.8a2.84,2.84,0,0,1-1,1.5A4.92,4.92,0,0,1,60.4,60.8Zm-0.1-7.6a1.42,1.42,0,0,0-.6.2,1,1,0,0,0-.4.5,1.45,1.45,0,0,0-.2.7,2,2,0,0,0-.1.7l2.6-.1a5.41,5.41,0,0,0-.4-1.5A1.05,1.05,0,0,0,60.3,53.2Z"/><path class="cls-1" d="M65.1,64.5L65,51.9l1.9-.1L67,53.1a2.38,2.38,0,0,1,.6-1.1,1.7,1.7,0,0,1,1.3-.4,1.59,1.59,0,0,1,1.2.4,4.5,4.5,0,0,1,.9,1,5.27,5.27,0,0,1,.5,1.5,11,11,0,0,1,.2,1.8,9,9,0,0,1-.2,1.8,5.27,5.27,0,0,1-.5,1.5,2.19,2.19,0,0,1-.9,1,2.84,2.84,0,0,1-1.2.4,2,2,0,0,1-1.3-.4,2.29,2.29,0,0,1-.7-1L67,64.8H65.1V64.5Zm3.2-11.2a1.42,1.42,0,0,0-.6.2,0.92,0.92,0,0,0-.4.6L67,55v1.2a3.75,3.75,0,0,0,.1,1.1,2.39,2.39,0,0,0,.3.9,1.54,1.54,0,0,0,.4.6,1,1,0,0,0,1.2,0,0.92,0.92,0,0,0,.4-0.6,2.92,2.92,0,0,0,.2-0.9,4.1,4.1,0,0,0,.1-1.1,3.75,3.75,0,0,0-.1-1.1,6.37,6.37,0,0,0-.2-0.9,2.09,2.09,0,0,0-.4-0.6A0.91,0.91,0,0,0,68.3,53.3Z"/><path class="cls-1" d="M73.4,60.5l-0.1-8.6,1.9-.1,0.1,1.7a2.62,2.62,0,0,1,.6-1.5,1.61,1.61,0,0,1,1.1-.5h0.3l-0.1,2H76.7a1.42,1.42,0,0,0-.6.2,1.58,1.58,0,0,0-.5.6,6.89,6.89,0,0,0-.3.8,2.77,2.77,0,0,0-.1.9v4.3H73.4v0.2Z"/><path class="cls-1" d="M81.2,60.8a2.85,2.85,0,0,1-2.4-1.2,5.51,5.51,0,0,1-.9-3.4,11.08,11.08,0,0,1,.2-1.9,5.23,5.23,0,0,1,.7-1.5,2.84,2.84,0,0,1,1-.9,3.19,3.19,0,0,1,1.4-.3,2.9,2.9,0,0,1,1.4.3,2.84,2.84,0,0,1,1,.9,5.78,5.78,0,0,1,.5,1.4,8.81,8.81,0,0,1,.2,1.7v0.7l-4.5.1c0.1,0.3.1,0.6,0.2,0.9s0.2,0.5.3,0.8a1.21,1.21,0,0,0,.5.5,1.42,1.42,0,0,0,.6.2,1.14,1.14,0,0,0,.8-0.3,2.18,2.18,0,0,0,.5-0.8l1.5,0.8a2.84,2.84,0,0,1-1,1.5A4.23,4.23,0,0,1,81.2,60.8Zm0-7.6a1.42,1.42,0,0,0-.6.2,1,1,0,0,0-.4.5,1.45,1.45,0,0,0-.2.7,1.7,1.7,0,0,0-.1.7l2.6-.1a5.41,5.41,0,0,0-.4-1.5A1.05,1.05,0,0,0,81.2,53.2Z"/><path class="cls-1" d="M90.3,60.5l-0.1-5.4V54.5c0-.2-0.1-0.4-0.1-0.6a1.38,1.38,0,0,0-.3-0.4,0.75,0.75,0,0,0-.5-0.1,1.22,1.22,0,0,0-1,.6,3.41,3.41,0,0,0-.4,1.6v4.9H86l-0.1-8.6,1.9-.1,0.1,1.4a1.85,1.85,0,0,1,.7-1.2,2.17,2.17,0,0,1,1.4-.5,2.13,2.13,0,0,1,1.2.3,2.7,2.7,0,0,1,.7.8,2,2,0,0,1,.3,1.1,5.7,5.7,0,0,1,.1,1.3v5.4l-2,.1h0Z"/><path class="cls-1" d="M97.2,60.8a2.85,2.85,0,0,1-2.4-1.2,5.51,5.51,0,0,1-.9-3.4,11.08,11.08,0,0,1,.2-1.9,5.23,5.23,0,0,1,.7-1.5,2.84,2.84,0,0,1,1-.9,3.19,3.19,0,0,1,1.4-.3,2.9,2.9,0,0,1,1.4.3,2.84,2.84,0,0,1,1,.9,5.78,5.78,0,0,1,.5,1.4,8.81,8.81,0,0,1,.2,1.7v0.7l-4.5.1c0.1,0.3.1,0.6,0.2,0.9s0.2,0.5.3,0.8a1.21,1.21,0,0,0,.5.5,1.42,1.42,0,0,0,.6.2,1.14,1.14,0,0,0,.8-0.3,2.18,2.18,0,0,0,.5-0.8l1.5,0.8a2.84,2.84,0,0,1-1,1.5A4.92,4.92,0,0,1,97.2,60.8Zm0-7.6a1.42,1.42,0,0,0-.6.2,1,1,0,0,0-.4.5,1.45,1.45,0,0,0-.2.7,1.7,1.7,0,0,0-.1.7l2.6-.1a5.41,5.41,0,0,0-.4-1.5A1.05,1.05,0,0,0,97.2,53.2Z"/><path class="cls-1" d="M104,60.8a2.13,2.13,0,0,1-1.2-.3,2.7,2.7,0,0,1-.7-0.8,2,2,0,0,1-.3-1.1,5.28,5.28,0,0,1-.1-1.3V51.9l1.9-.1,0.1,5.4v0.6c0,0.2.1,0.4,0.1,0.6a1.38,1.38,0,0,0,.3.4,0.75,0.75,0,0,0,.5.1,1.22,1.22,0,0,0,1-.6,3.41,3.41,0,0,0,.4-1.6V51.8l1.9-.1,0.1,8.6-1.9.1L106,59a1.85,1.85,0,0,1-.7,1.2A1.38,1.38,0,0,1,104,60.8Z"/><path class="cls-1" d="M110.4,60.5l-0.1-8.6,1.9-.1,0.1,1.7a2.62,2.62,0,0,1,.6-1.5,1.61,1.61,0,0,1,1.1-.5h0.3l-0.1,2h-0.5a1.42,1.42,0,0,0-.6.2,1.58,1.58,0,0,0-.5.6,6.89,6.89,0,0,0-.3.8,2.77,2.77,0,0,0-.1.9v4.3h-1.8v0.2Z"/><path class="cls-1" d="M117.3,60.8a3.65,3.65,0,0,1-1.5-.3,2.73,2.73,0,0,1-1.2-.9l1-1.3c0.3,0.2.5,0.4,0.8,0.6a1.49,1.49,0,0,0,.9.2,0.91,0.91,0,0,0,.7-0.3,1.14,1.14,0,0,0,.3-0.8,0.73,0.73,0,0,0-.4-0.8,9.29,9.29,0,0,0-1-.5,4.88,4.88,0,0,0-.7-0.3,2.65,2.65,0,0,1-.6-0.5,1.61,1.61,0,0,1-.4-0.7,3,3,0,0,1-.2-1,3.59,3.59,0,0,1,.2-1.1,5.55,5.55,0,0,1,.6-0.8,1.93,1.93,0,0,1,.9-0.5,3.55,3.55,0,0,1,1-.2,3.19,3.19,0,0,1,1.4.3,4.13,4.13,0,0,1,1.1.7l-1,1.3a1.79,1.79,0,0,0-.7-0.5,1.88,1.88,0,0,0-.8-0.2,1,1,0,0,0-.7,1.7c0.2,0.1.5,0.3,0.9,0.5,0.2,0.1.5,0.2,0.7,0.3a2.62,2.62,0,0,1,1.2,1.2,3,3,0,0,1,.2,1,5.07,5.07,0,0,1-.2,1.3,3.49,3.49,0,0,1-.6.9,4.05,4.05,0,0,1-.9.5A3,3,0,0,1,117.3,60.8Z"/><polygon class="cls-1" points="62.1 78 62 66.1 67.4 66 67.5 67.9 64.1 68 64.2 71.2 67.2 71.1 67.2 72.9 64.1 72.9 64.2 78 62.1 78"/><path class="cls-1" d="M71.4,78.3A3.19,3.19,0,0,1,70,78a3.13,3.13,0,0,1-1.1-.9,5.23,5.23,0,0,1-.7-1.5,5.84,5.84,0,0,1-.2-1.9,11.08,11.08,0,0,1,.2-1.9,5.23,5.23,0,0,1,.7-1.5,2.44,2.44,0,0,1,1.1-.9,3.42,3.42,0,0,1,2.8,0,3.13,3.13,0,0,1,1.1.9,5.23,5.23,0,0,1,.7,1.5,5.84,5.84,0,0,1,.2,1.9,11.08,11.08,0,0,1-.2,1.9,5.23,5.23,0,0,1-.7,1.5,2.44,2.44,0,0,1-1.1.9A3.19,3.19,0,0,1,71.4,78.3Zm0-7.5a1.42,1.42,0,0,0-.6.2,0.92,0.92,0,0,0-.4.6,2.92,2.92,0,0,0-.2.9,6.1,6.1,0,0,0,0,2.2,6.37,6.37,0,0,0,.2.9,2.09,2.09,0,0,0,.4.6,1,1,0,0,0,1.2,0,0.92,0.92,0,0,0,.4-0.6,2.92,2.92,0,0,0,.2-0.9,4.1,4.1,0,0,0,.1-1.1,3.75,3.75,0,0,0-.1-1.1,2.39,2.39,0,0,0-.3-0.9,1.54,1.54,0,0,0-.4-0.6A0.76,0.76,0,0,0,71.4,70.8Z"/><path class="cls-1" d="M76.5,78l-0.1-8.6,1.9-.1L78.4,71a2.62,2.62,0,0,1,.6-1.5,1.61,1.61,0,0,1,1.1-.5h0.3l-0.1,2H79.8a1.42,1.42,0,0,0-.6.2,1.58,1.58,0,0,0-.5.6,6.89,6.89,0,0,0-.3.8,2.77,2.77,0,0,0-.1.9V78H76.5Z"/><path class="cls-1" d="M87.2,78.3a3.42,3.42,0,0,1-1.8-.4,5,5,0,0,1-1.4-1l1.1-1.5a3.59,3.59,0,0,0,1,.7,2.28,2.28,0,0,0,1.1.3,1.28,1.28,0,0,0,1-.4,1.59,1.59,0,0,0,.4-1.2,1.66,1.66,0,0,0-.5-1.2,4.11,4.11,0,0,0-1.3-.8c-0.3-.2-0.6-0.3-0.9-0.5a5,5,0,0,1-.8-0.7,4.05,4.05,0,0,1-.5-0.9,4.44,4.44,0,0,1-.2-1.3,3.81,3.81,0,0,1,.3-1.6,4.44,4.44,0,0,1,.8-1.1,4.13,4.13,0,0,1,1.1-.7,5,5,0,0,1,1.2-.2,3.81,3.81,0,0,1,1.6.3,2.73,2.73,0,0,1,1.2.9l-1.1,1.5a2.29,2.29,0,0,0-1.7-.8,0.75,0.75,0,0,0-.5.1c-0.2.1-.3,0.2-0.5,0.3a2.19,2.19,0,0,0-.3.5,1.7,1.7,0,0,0-.1.7,1.25,1.25,0,0,0,.4,1.1,6.22,6.22,0,0,0,1.2.8,4.05,4.05,0,0,1,.9.5,2.7,2.7,0,0,1,.8.7,3.33,3.33,0,0,1,.6,1,5.07,5.07,0,0,1,.2,1.3,4.15,4.15,0,0,1-.3,1.6,2.26,2.26,0,0,1-.8,1.1,4.13,4.13,0,0,1-1.1.7A2.68,2.68,0,0,1,87.2,78.3Z"/><path class="cls-1" d="M95.2,78.3a3.19,3.19,0,0,1-1.4-.3,3.13,3.13,0,0,1-1.1-.9,5.23,5.23,0,0,1-.7-1.5,5.84,5.84,0,0,1-.2-1.9,11.08,11.08,0,0,1,.2-1.9,5.23,5.23,0,0,1,.7-1.5,2.44,2.44,0,0,1,1.1-.9,3.42,3.42,0,0,1,2.8,0,3.13,3.13,0,0,1,1.1.9,5.23,5.23,0,0,1,.7,1.5,5.84,5.84,0,0,1,.2,1.9,11.08,11.08,0,0,1-.2,1.9,5.23,5.23,0,0,1-.7,1.5,2.44,2.44,0,0,1-1.1.9A3.19,3.19,0,0,1,95.2,78.3Zm0-7.5a1.42,1.42,0,0,0-.6.2,0.92,0.92,0,0,0-.4.6,2.92,2.92,0,0,0-.2.9,6.1,6.1,0,0,0,0,2.2,6.37,6.37,0,0,0,.2.9,2.09,2.09,0,0,0,.4.6,1,1,0,0,0,1.2,0,0.92,0.92,0,0,0,.4-0.6,2.92,2.92,0,0,0,.2-0.9,4.1,4.1,0,0,0,.1-1.1,3.75,3.75,0,0,0-.1-1.1,2.39,2.39,0,0,0-.3-0.9,1.54,1.54,0,0,0-.4-0.6A0.76,0.76,0,0,0,95.2,70.8Z"/><path class="cls-1" d="M102.9,78.3a3.19,3.19,0,0,1-1.4-.3,2.41,2.41,0,0,1-1-1,3.39,3.39,0,0,1-.6-1.5,9.13,9.13,0,0,1,0-3.8,5.21,5.21,0,0,1,.6-1.5,2.84,2.84,0,0,1,1-.9,3.19,3.19,0,0,1,1.4-.3,3.73,3.73,0,0,1,1.2.2,5.58,5.58,0,0,1,.8.5l-0.8,1.5c-0.2-.1-0.3-0.2-0.5-0.3a1.08,1.08,0,0,0-.6-0.1,1,1,0,0,0-1,.7,5.44,5.44,0,0,0-.4,2,4,4,0,0,0,.4,2,1.08,1.08,0,0,0,1.1.7,1.27,1.27,0,0,0,.6-0.1,0.78,0.78,0,0,0,.4-0.4l0.9,1.5a2.18,2.18,0,0,1-.9.7A1.59,1.59,0,0,1,102.9,78.3Z"/><path class="cls-1" d="M106.1,78L106,69.4l1.9-.1L108,78h-1.9Zm0.9-9.8a0.91,0.91,0,0,1-.8-0.4,1.22,1.22,0,0,1-.3-0.9,1.61,1.61,0,0,1,.3-0.9,1.23,1.23,0,0,1,.8-0.4,0.91,0.91,0,0,1,.8.4,1.22,1.22,0,0,1,.3.9,1.61,1.61,0,0,1-.3.9A0.81,0.81,0,0,1,107,68.2Z"/><path class="cls-1" d="M111.8,78.2a2.49,2.49,0,0,1-.8-0.1,1.16,1.16,0,0,1-.7-0.5,2.18,2.18,0,0,1-.5-0.8,3.73,3.73,0,0,1-.2-1.2,3.34,3.34,0,0,1,.3-1.5,2,2,0,0,1,.9-0.9,3.34,3.34,0,0,1,1.2-.5,4.87,4.87,0,0,1,1.2-.1h0.5l-0.1-.2a1.74,1.74,0,0,0-.3-1.2,1.27,1.27,0,0,0-.9-0.4,2.92,2.92,0,0,0-.9.2,1.34,1.34,0,0,0-.7.6l-1-1.2a2.34,2.34,0,0,1,1.2-1,3.93,3.93,0,0,1,1.4-.3,3.19,3.19,0,0,1,1.4.3,2.18,2.18,0,0,1,.9.7,3.34,3.34,0,0,1,.5,1.2,8.08,8.08,0,0,1,.1,1.6V78l-1.6.1-0.1-1.3a1.36,1.36,0,0,1-.6,1.1A1.74,1.74,0,0,1,111.8,78.2Zm1.4-4.2a1.7,1.7,0,0,0-.7.1,1.42,1.42,0,0,0-.6.2,1.51,1.51,0,0,0-.4.4,2,2,0,0,0,.2,1.7,0.86,0.86,0,0,0,.6.3,1.07,1.07,0,0,0,.6-0.2,1,1,0,0,0,.4-0.5,1.85,1.85,0,0,0,.2-0.7c0-.3.1-0.5,0.1-0.8V74h-0.4Z"/><polygon class="cls-1" points="117.5 78 117.5 65.3 119.4 65.2 119.5 78 117.5 78"/><polygon class="cls-1" points="32.1 95.5 32 83.6 37.4 83.5 37.5 85.4 34 85.4 34.1 88.5 37.2 88.5 37.2 90.2 34 90.2 34.1 93.7 37.6 93.6 37.6 95.5 32.1 95.5"/><path class="cls-1" d="M43.7,95.5l-0.1-5.4V89.5c0-.2-0.1-0.4-0.1-0.6a1.38,1.38,0,0,0-.3-0.4,0.75,0.75,0,0,0-.5-0.1,1.22,1.22,0,0,0-1,.6,3.41,3.41,0,0,0-.4,1.6v4.9l-1.9.1L39.3,87l1.9-.1,0.1,1.4a1.85,1.85,0,0,1,.7-1.2,2.17,2.17,0,0,1,1.4-.5,2.13,2.13,0,0,1,1.2.3,2.7,2.7,0,0,1,.7.8,2,2,0,0,1,.3,1.1,5.7,5.7,0,0,1,.1,1.3v5.4h-2Z"/><path class="cls-1" d="M50,95.7a1.75,1.75,0,0,1-1.6-.7,3.31,3.31,0,0,1-.5-1.9V88.3l-1,.1-0.1-1.5,1.1-.1-0.1-2.1,1.8-.1,0.1,2.2,1.4-.1,0.1,1.5-1.5.1,0.1,4.3a2.15,2.15,0,0,0,.2,1,0.6,0.6,0,0,0,.6.3h0.3c0.1,0,.2-0.1.3-0.1l0.1,1.5a1.42,1.42,0,0,1-.6.2A1.08,1.08,0,0,1,50,95.7Z"/><path class="cls-1" d="M52.6,95.5l-0.1-8.6,1.9-.1,0.1,1.7a2.62,2.62,0,0,1,.6-1.5,1.61,1.61,0,0,1,1.1-.5h0.3l-0.1,2H55.9a1.42,1.42,0,0,0-.6.2,1.58,1.58,0,0,0-.5.6,6.89,6.89,0,0,0-.3.8,2.77,2.77,0,0,0-.1.9v4.3H52.6v0.2Z"/><path class="cls-1" d="M60.4,95.8A2.85,2.85,0,0,1,58,94.6a5.51,5.51,0,0,1-.9-3.4,11.08,11.08,0,0,1,.2-1.9,5.23,5.23,0,0,1,.7-1.5,2.84,2.84,0,0,1,1-.9,3.19,3.19,0,0,1,1.4-.3,2.9,2.9,0,0,1,1.4.3,2.84,2.84,0,0,1,1,.9,5.78,5.78,0,0,1,.5,1.4,8.81,8.81,0,0,1,.2,1.7v0.7l-4.5.1c0.1,0.3.1,0.6,0.2,0.9s0.2,0.5.3,0.8a1.21,1.21,0,0,0,.5.5,1.42,1.42,0,0,0,.6.2,1.14,1.14,0,0,0,.8-0.3,2.18,2.18,0,0,0,.5-0.8l1.5,0.8a2.84,2.84,0,0,1-1,1.5A4.92,4.92,0,0,1,60.4,95.8Zm-0.1-7.6a1.42,1.42,0,0,0-.6.2,1,1,0,0,0-.4.5,1.45,1.45,0,0,0-.2.7,2,2,0,0,0-.1.7l2.6-.1a5.41,5.41,0,0,0-.4-1.5A1.05,1.05,0,0,0,60.3,88.2Z"/><path class="cls-1" d="M65.1,99.5L65,86.9l1.9-.1L67,88.1a2.38,2.38,0,0,1,.6-1.1,1.7,1.7,0,0,1,1.3-.4,1.59,1.59,0,0,1,1.2.4,4.5,4.5,0,0,1,.9,1,5.27,5.27,0,0,1,.5,1.5,11,11,0,0,1,.2,1.8,9,9,0,0,1-.2,1.8,5.27,5.27,0,0,1-.5,1.5,2.19,2.19,0,0,1-.9,1,2.84,2.84,0,0,1-1.2.4,2,2,0,0,1-1.3-.4,2.29,2.29,0,0,1-.7-1L67,99.8H65.1V99.5Zm3.2-11.2a1.42,1.42,0,0,0-.6.2,0.92,0.92,0,0,0-.4.6L67,90v1.2a3.75,3.75,0,0,0,.1,1.1,2.39,2.39,0,0,0,.3.9,1.54,1.54,0,0,0,.4.6,1,1,0,0,0,1.2,0,0.92,0.92,0,0,0,.4-0.6,2.92,2.92,0,0,0,.2-0.9,4.1,4.1,0,0,0,.1-1.1,3.75,3.75,0,0,0-.1-1.1,6.37,6.37,0,0,0-.2-0.9,2.09,2.09,0,0,0-.4-0.6A0.91,0.91,0,0,0,68.3,88.3Z"/><path class="cls-1" d="M73.4,95.5l-0.1-8.6,1.9-.1,0.1,1.7a2.62,2.62,0,0,1,.6-1.5,1.61,1.61,0,0,1,1.1-.5h0.3l-0.1,2H76.7a1.42,1.42,0,0,0-.6.2,1.58,1.58,0,0,0-.5.6,6.89,6.89,0,0,0-.3.8,2.77,2.77,0,0,0-.1.9v4.3H73.4v0.2Z"/><path class="cls-1" d="M81.2,95.8a2.85,2.85,0,0,1-2.4-1.2,5.51,5.51,0,0,1-.9-3.4,11.08,11.08,0,0,1,.2-1.9,5.23,5.23,0,0,1,.7-1.5,2.84,2.84,0,0,1,1-.9,3.19,3.19,0,0,1,1.4-.3,2.9,2.9,0,0,1,1.4.3,2.84,2.84,0,0,1,1,.9,5.78,5.78,0,0,1,.5,1.4,8.81,8.81,0,0,1,.2,1.7v0.7l-4.5.1c0.1,0.3.1,0.6,0.2,0.9s0.2,0.5.3,0.8a1.21,1.21,0,0,0,.5.5,1.42,1.42,0,0,0,.6.2,1.14,1.14,0,0,0,.8-0.3,2.18,2.18,0,0,0,.5-0.8l1.5,0.8a2.84,2.84,0,0,1-1,1.5A4.23,4.23,0,0,1,81.2,95.8Zm0-7.6a1.42,1.42,0,0,0-.6.2,1,1,0,0,0-.4.5,1.45,1.45,0,0,0-.2.7,1.7,1.7,0,0,0-.1.7l2.6-.1a5.41,5.41,0,0,0-.4-1.5A1.05,1.05,0,0,0,81.2,88.2Z"/><path class="cls-1" d="M90.3,95.5l-0.1-5.4V89.5c0-.2-0.1-0.4-0.1-0.6a1.38,1.38,0,0,0-.3-0.4,0.75,0.75,0,0,0-.5-0.1,1.22,1.22,0,0,0-1,.6,3.41,3.41,0,0,0-.4,1.6v4.9H86l-0.1-8.6,1.9-.1,0.1,1.4a1.85,1.85,0,0,1,.7-1.2,2.17,2.17,0,0,1,1.4-.5,2.13,2.13,0,0,1,1.2.3,2.7,2.7,0,0,1,.7.8,2,2,0,0,1,.3,1.1,5.7,5.7,0,0,1,.1,1.3v5.4l-2,.1h0Z"/><path class="cls-1" d="M97.2,95.8a2.85,2.85,0,0,1-2.4-1.2,5.51,5.51,0,0,1-.9-3.4,11.08,11.08,0,0,1,.2-1.9,5.23,5.23,0,0,1,.7-1.5,2.84,2.84,0,0,1,1-.9,3.19,3.19,0,0,1,1.4-.3,2.9,2.9,0,0,1,1.4.3,2.84,2.84,0,0,1,1,.9,5.78,5.78,0,0,1,.5,1.4,8.81,8.81,0,0,1,.2,1.7v0.7l-4.5.1c0.1,0.3.1,0.6,0.2,0.9s0.2,0.5.3,0.8a1.21,1.21,0,0,0,.5.5,1.42,1.42,0,0,0,.6.2,1.14,1.14,0,0,0,.8-0.3,2.18,2.18,0,0,0,.5-0.8l1.5,0.8a2.84,2.84,0,0,1-1,1.5A4.92,4.92,0,0,1,97.2,95.8Zm0-7.6a1.42,1.42,0,0,0-.6.2,1,1,0,0,0-.4.5,1.45,1.45,0,0,0-.2.7,1.7,1.7,0,0,0-.1.7l2.6-.1a5.41,5.41,0,0,0-.4-1.5A1.05,1.05,0,0,0,97.2,88.2Z"/><path class="cls-1" d="M104,95.8a2.13,2.13,0,0,1-1.2-.3,2.7,2.7,0,0,1-.7-0.8,2,2,0,0,1-.3-1.1,5.28,5.28,0,0,1-.1-1.3V86.9l1.9-.1,0.1,5.4v0.6c0,0.2.1,0.4,0.1,0.6a1.38,1.38,0,0,0,.3.4,0.75,0.75,0,0,0,.5.1,1.22,1.22,0,0,0,1-.6,3.41,3.41,0,0,0,.4-1.6V86.8l1.9-.1,0.1,8.6-1.9.1L106,94a1.85,1.85,0,0,1-.7,1.2A1.38,1.38,0,0,1,104,95.8Z"/><path class="cls-1" d="M110.4,95.5l-0.1-8.6,1.9-.1,0.1,1.7a2.62,2.62,0,0,1,.6-1.5,1.61,1.61,0,0,1,1.1-.5h0.3l-0.1,2h-0.5a1.42,1.42,0,0,0-.6.2,1.58,1.58,0,0,0-.5.6,6.89,6.89,0,0,0-.3.8,2.77,2.77,0,0,0-.1.9v4.3h-1.8v0.2Z"/><path class="cls-1" d="M117.3,95.8a3.65,3.65,0,0,1-1.5-.3,2.73,2.73,0,0,1-1.2-.9l1-1.3c0.3,0.2.5,0.4,0.8,0.6a1.49,1.49,0,0,0,.9.2,0.91,0.91,0,0,0,.7-0.3,1.14,1.14,0,0,0,.3-0.8,0.73,0.73,0,0,0-.4-0.8,9.29,9.29,0,0,0-1-.5,4.88,4.88,0,0,0-.7-0.3,2.65,2.65,0,0,1-.6-0.5,1.61,1.61,0,0,1-.4-0.7,3,3,0,0,1-.2-1,3.59,3.59,0,0,1,.2-1.1,5.55,5.55,0,0,1,.6-0.8,1.93,1.93,0,0,1,.9-0.5,3.55,3.55,0,0,1,1-.2,3.19,3.19,0,0,1,1.4.3,4.13,4.13,0,0,1,1.1.7l-1,1.3a1.79,1.79,0,0,0-.7-0.5,1.88,1.88,0,0,0-.8-0.2,1,1,0,0,0-.7,1.7c0.2,0.1.5,0.3,0.9,0.5,0.2,0.1.5,0.2,0.7,0.3a2.62,2.62,0,0,1,1.2,1.2,3,3,0,0,1,.2,1,5.07,5.07,0,0,1-.2,1.3,3.49,3.49,0,0,1-.6.9,4.05,4.05,0,0,1-.9.5A3,3,0,0,1,117.3,95.8Z"/><path class="cls-1" d="M30.9,170.8V103.7H47v67.1H30.9Z"/><path class="cls-1" d="M76.9,172.7c-16.8,0-26.1-8.2-26.1-20.8v-3.3H65.5v2c0,6.7,4.6,9.6,11.2,9.6s9.3-3.1,9.3-7.7c0-11.9-34.1-8.6-34.1-30.1,0-11.3,9.1-20.6,24.6-20.6s25,8.6,25,20.3v3.3H86.7v-2c0-5.2-3.5-9.1-10.3-9.1-5.7,0-9.1,2.9-9.1,7.4,0,11.4,34.3,8.2,34.3,29.6C101.7,163.1,93.1,172.7,76.9,172.7Z"/><path class="cls-1" d="M130,172.7c-16.8,0-26.1-8.2-26.1-20.8v-3.3h14.7v2c0,6.7,4.6,9.6,11.2,9.6s9.3-3.1,9.3-7.7c0-11.9-34.1-8.6-34.1-30.1,0-11.3,9.1-20.6,24.6-20.6s25,8.6,25,20.3v3.3H139.9v-2c0-5.2-3.5-9.1-10.3-9.1-5.7,0-9.1,2.9-9.1,7.4,0,11.4,34.3,8.2,34.3,29.6C154.8,163.1,146.2,172.7,130,172.7Z"/><path class="cls-1" d="M184.9,172.7c-16.3,0-26.3-9.3-26.3-22V103.6h16.3v46.5c0,5.9,3.5,9.6,10.4,9.6s10.3-3.6,10.3-9.6V103.6H211v47.1C211,163.3,201.6,172.7,184.9,172.7Z"/><path class="cls-1" d="M214.3,170.8V103.7h45.3v13H230.5v14.1h20.4v13H230.5v14.1h29.1v13H214.3v-0.1Z"/><path class="cls-1" d="M171.1,63.1l-0.6-.3,0.6-.3c4.8-2.1,7.4-6.4,7.4-12.3V46.6c0-10.2-7.2-16.3-19.3-16.3H129.6V96.4h30c12.2,0,19.5-6.1,19.5-16.3V75.3C179.1,69.5,176.3,65.3,171.1,63.1ZM146.7,44.5h9.9c3.6,0,5.5.6,5.5,4v4.3c0,3.6-2.1,3.6-5.9,3.6h-9.5V44.5Zm15.6,34c0,2-.7,3.9-5.5,3.9H146.7v-12h10c3.5,0,5.6,0,5.6,3.6v4.5Z"/><polygon class="cls-1" points="184 96.5 201.1 96.5 201.1 30.4 184 30.4 184 96.5"/><path class="cls-1" d="M232.8,28.7c-16,0-26.8,9.7-26.8,24.2V74c0,14.6,10.8,24.3,26.8,24.3s26.7-9.8,26.7-24.3V56.4H233.1V70.5h9.2v4.3c0,5.8-3.6,9.5-9.4,9.5s-9.4-3.5-9.4-9.5V52.2c0-6,3.5-9.6,9.4-9.6,5.2,0,8.6,2.8,9.3,7.7h17.3c-1.3-13.1-11.7-21.6-26.7-21.6h0Z"/><path class="cls-2" d="M129.6,187H14.3V14.3H276V187H259.4l0.1,14.3h30.9V0H0V201.3H129.6V187Z"/><rect class="cls-1" x="136.8" y="179.6" width="5.9" height="29.1"/><polygon class="cls-1" points="162.1 208.8 152.4 190.4 152.4 208.8 146.8 208.8 146.8 179.6 152.6 179.6 162.3 198.1 162.3 179.6 167.9 179.6 167.9 208.8 162.1 208.8"/><polygon class="cls-1" points="177.4 208.8 169.3 179.6 175.4 179.6 180.6 199 185.9 179.6 192 179.6 183.8 208.8 177.4 208.8"/><polygon class="cls-1" points="193.4 208.8 193.4 179.6 212.2 179.6 212.2 185.5 199.3 185.5 199.3 191 208.6 191 208.6 196.5 199.3 196.5 199.3 202.9 212.4 202.9 212.4 208.8 193.4 208.8"/><path class="cls-1" d="M224.6,209.4a13.36,13.36,0,0,1-4-.6,8.79,8.79,0,0,1-3.4-1.9,8.32,8.32,0,0,1-2.4-3.3,9.9,9.9,0,0,1-.8-4.7v-0.3h5.7v0.3a5.27,5.27,0,0,0,.4,2.3,4.18,4.18,0,0,0,1.1,1.5,5.07,5.07,0,0,0,1.6.9,6.45,6.45,0,0,0,2,.3,7.57,7.57,0,0,0,1.5-.1,5.78,5.78,0,0,0,1.4-.5,3.46,3.46,0,0,0,1.1-1,2.73,2.73,0,0,0,.4-1.6,2.35,2.35,0,0,0-.6-1.7,5,5,0,0,0-1.6-1.1,12.34,12.34,0,0,0-2.3-.8,19.75,19.75,0,0,1-2.6-.8c-0.9-.3-1.8-0.6-2.7-1a9.74,9.74,0,0,1-2.4-1.5,6.14,6.14,0,0,1-1.7-2.4,9.07,9.07,0,0,1-.7-3.5,9.35,9.35,0,0,1,.8-3.9,7.63,7.63,0,0,1,2.2-2.8,11.09,11.09,0,0,1,3-1.7,9.46,9.46,0,0,1,3.3-.5,15,15,0,0,1,3.7.5,7.62,7.62,0,0,1,3.2,1.7,8.35,8.35,0,0,1,2.2,3,11.37,11.37,0,0,1,.8,4.3v0.3h-5.7v-0.3a5.44,5.44,0,0,0-.4-2,3.78,3.78,0,0,0-.9-1.2,3.51,3.51,0,0,0-1.4-.6,9,9,0,0,0-1.8-.2,5,5,0,0,0-1.2.2,3.7,3.7,0,0,0-1.1.5,2.36,2.36,0,0,0-.8.9,2.9,2.9,0,0,0-.3,1.4,3.73,3.73,0,0,0,.2,1.2,2.09,2.09,0,0,0,1,.8,9.77,9.77,0,0,0,2.2.9c0.9,0.3,2.2.7,3.7,1.1a18.33,18.33,0,0,1,1.9.6,10.49,10.49,0,0,1,2.5,1.4,8.72,8.72,0,0,1,2.1,2.5,8.3,8.3,0,0,1,.9,4.1,9,9,0,0,1-.7,3.7,6.91,6.91,0,0,1-2,3,10.77,10.77,0,0,1-3.3,2A11.84,11.84,0,0,1,224.6,209.4Z"/><polygon class="cls-1" points="242.9 208.8 242.9 185.5 235.6 185.5 235.6 179.6 256.1 179.6 256.1 185.5 248.8 185.5 248.8 208.8 242.9 208.8"/></svg>