<?xml version="1.0" encoding="utf-8"?>
<!-- Generator: Adobe Illustrator 21.0.2, SVG Export Plug-In . SVG Version: 6.00 Build 0)  -->
<!DOCTYPE svg PUBLIC "-//W3C//DTD SVG 1.1//EN" "http://www.w3.org/Graphics/SVG/1.1/DTD/svg11.dtd">
<svg version="1.1" id="Layer_1" xmlns="http://www.w3.org/2000/svg" xmlns:xlink="http://www.w3.org/1999/xlink" x="0px" y="0px"
	 viewBox="0 0 290.4 209.4" style="enable-background:new 0 0 290.4 209.4;" xml:space="preserve">
<style type="text/css">
	.st0{fill:#FFFFFF;}
	.st1{fill:#1B9DD9;}
	.st2{fill:#2A3180;}
</style>
<rect x="7.2" y="7.2" class="st0" width="276.1" height="187"/>
<rect x="129.6" y="171.1" class="st0" width="130" height="38.3"/>
<path class="st1" d="M65.8,43l-0.1-11.9L69,31c0.3,0,0.7,0,1.1,0.1s0.8,0.2,1.1,0.5c0.3,0.2,0.6,0.5,0.8,0.9
	c0.2,0.4,0.3,0.9,0.3,1.5c0,0.7-0.2,1.3-0.5,1.8c-0.3,0.4-0.7,0.7-1.1,0.9l0,0c0.2,0,0.4,0.1,0.6,0.2c0.2,0.1,0.5,0.3,0.6,0.6
	s0.4,0.5,0.5,0.9c0.1,0.3,0.2,0.7,0.2,1.2c0,0.6-0.1,1.2-0.3,1.6c-0.2,0.4-0.5,0.8-0.8,1c-0.3,0.3-0.7,0.5-1.1,0.6
	C70.1,43,69.7,43,69.3,43H65.8z M67.8,41.3l1.2-0.1c0.2,0,0.5,0,0.7-0.1s0.4-0.2,0.5-0.3c0.2-0.1,0.3-0.3,0.4-0.5s0.1-0.5,0.1-0.8
	s-0.1-0.6-0.2-0.9c-0.1-0.2-0.2-0.4-0.4-0.6c-0.2-0.1-0.4-0.3-0.6-0.3c-0.2-0.1-0.4-0.1-0.6-0.1h-1.2L67.8,41.3L67.8,41.3z
	 M67.8,36.1l1.1-0.1c0.2,0,0.4,0,0.6-0.1s0.4-0.2,0.5-0.3s0.3-0.3,0.4-0.5s0.1-0.5,0.1-0.7c0-0.3,0-0.5-0.1-0.7s-0.2-0.4-0.4-0.5
	c-0.1-0.1-0.3-0.2-0.5-0.3s-0.4-0.1-0.6-0.1h-1L67.8,36.1L67.8,36.1z"/>
<path class="st1" d="M74.9,47c-0.2,0-0.4,0-0.7,0c-0.2,0-0.4-0.1-0.5-0.1l0.2-1.8H74c0.1,0,0.2,0,0.3,0c0.1,0,0.2,0,0.4,0
	c0.3,0,0.5-0.1,0.6-0.3s0.3-0.4,0.3-0.7l0.3-1.1l-2.5-8.7l2-0.1l1.5,6.5l1.3-6.4h2l-2.5,9.8c-0.1,0.4-0.2,0.8-0.4,1.2
	c-0.2,0.4-0.3,0.7-0.6,0.9c-0.2,0.3-0.5,0.5-0.8,0.6C75.7,47,75.3,47,74.9,47z"/>
<path class="st1" d="M87.2,43.3c-0.7,0-1.3-0.1-1.8-0.4c-0.6-0.3-1-0.6-1.4-1l1.1-1.5c0.3,0.3,0.6,0.5,1,0.7s0.7,0.3,1.1,0.3
	s0.7-0.1,1-0.4c0.3-0.3,0.4-0.7,0.4-1.2s-0.2-0.9-0.5-1.2s-0.8-0.6-1.3-0.8c-0.3-0.2-0.6-0.3-0.9-0.5s-0.5-0.4-0.8-0.7
	c-0.2-0.3-0.4-0.6-0.5-0.9s-0.2-0.8-0.2-1.3c0-0.6,0.1-1.2,0.3-1.6c0.2-0.4,0.5-0.8,0.8-1.1c0.3-0.3,0.7-0.5,1.1-0.7
	c0.4-0.1,0.8-0.2,1.2-0.2c0.6,0,1.2,0.1,1.6,0.3c0.5,0.2,0.9,0.5,1.2,0.9l-1.1,1.5c-0.5-0.5-1-0.8-1.7-0.8c-0.2,0-0.4,0-0.5,0.1
	c-0.2,0.1-0.3,0.2-0.5,0.3c-0.1,0.1-0.2,0.3-0.3,0.5c-0.1,0.2-0.1,0.5-0.1,0.7c0,0.5,0.1,0.9,0.4,1.1c0.3,0.3,0.7,0.5,1.2,0.8
	c0.3,0.1,0.6,0.3,0.9,0.5s0.6,0.4,0.8,0.7c0.2,0.3,0.5,0.6,0.6,1s0.2,0.8,0.2,1.3c0,0.6-0.1,1.1-0.3,1.6c-0.2,0.5-0.4,0.8-0.8,1.1
	c-0.3,0.3-0.7,0.5-1.1,0.7C88.1,43.2,87.7,43.3,87.2,43.3z"/>
<path class="st1" d="M95.2,43.3c-0.5,0-1-0.1-1.4-0.3s-0.8-0.5-1.1-0.9c-0.3-0.4-0.5-0.9-0.7-1.5s-0.2-1.2-0.2-1.9s0.1-1.3,0.2-1.9
	c0.2-0.6,0.4-1.1,0.7-1.5c0.3-0.4,0.6-0.7,1.1-0.9c0.4-0.2,0.9-0.3,1.4-0.3s1,0.1,1.4,0.3s0.8,0.5,1.1,0.9c0.3,0.4,0.5,0.9,0.7,1.5
	s0.2,1.2,0.2,1.9s-0.1,1.3-0.2,1.9c-0.2,0.6-0.4,1.1-0.7,1.5c-0.3,0.4-0.6,0.7-1.1,0.9C96.2,43.2,95.7,43.3,95.2,43.3z M95.2,35.8
	c-0.2,0-0.4,0.1-0.6,0.2c-0.2,0.1-0.3,0.3-0.4,0.6S94,37.2,94,37.5c-0.1,0.3-0.1,0.7-0.1,1.1c0,0.4,0,0.8,0.1,1.1
	c0.1,0.4,0.1,0.7,0.2,0.9s0.2,0.4,0.4,0.6c0.2,0.1,0.4,0.2,0.6,0.2s0.4-0.1,0.6-0.2c0.2-0.1,0.3-0.3,0.4-0.6s0.2-0.6,0.2-0.9
	c0.1-0.4,0.1-0.7,0.1-1.1c0-0.4,0-0.8-0.1-1.1s-0.1-0.7-0.3-0.9c-0.1-0.3-0.3-0.5-0.4-0.6C95.6,35.9,95.4,35.8,95.2,35.8z"/>
<path class="st1" d="M102.9,43.3c-0.5,0-1-0.1-1.4-0.3s-0.8-0.6-1-1c-0.3-0.4-0.5-0.9-0.6-1.5s-0.2-1.2-0.2-1.9s0.1-1.3,0.2-1.9
	c0.1-0.6,0.4-1.1,0.6-1.5c0.3-0.4,0.6-0.7,1-0.9s0.9-0.3,1.4-0.3s0.9,0.1,1.2,0.2c0.3,0.2,0.6,0.3,0.8,0.5l-0.8,1.5
	c-0.2-0.1-0.3-0.2-0.5-0.3s-0.3-0.1-0.6-0.1c-0.4,0-0.8,0.2-1,0.7s-0.4,1.2-0.4,2s0.1,1.5,0.4,2c0.2,0.5,0.6,0.7,1.1,0.7
	c0.2,0,0.4,0,0.6-0.1s0.3-0.2,0.4-0.4l0.9,1.5c-0.2,0.3-0.5,0.5-0.9,0.7C103.8,43.2,103.4,43.3,102.9,43.3z"/>
<path class="st1" d="M106.1,43l-0.1-8.6l1.9-0.1L108,43C108,43,106.1,43,106.1,43z M107,33.2c-0.3,0-0.6-0.1-0.8-0.4
	c-0.2-0.2-0.3-0.5-0.3-0.9c0-0.3,0.1-0.6,0.3-0.9c0.2-0.2,0.5-0.4,0.8-0.4s0.6,0.1,0.8,0.4c0.2,0.2,0.3,0.5,0.3,0.9
	c0,0.3-0.1,0.6-0.3,0.9S107.4,33.2,107,33.2z"/>
<path class="st1" d="M111.8,43.2c-0.2,0-0.5,0-0.8-0.1s-0.5-0.2-0.7-0.5c-0.2-0.2-0.4-0.5-0.5-0.8s-0.2-0.7-0.2-1.2
	c0-0.6,0.1-1.1,0.3-1.5c0.2-0.4,0.5-0.7,0.9-0.9c0.3-0.2,0.7-0.4,1.2-0.5c0.4-0.1,0.8-0.1,1.2-0.1h0.5l-0.1-0.2c0-0.6-0.1-1-0.3-1.2
	c-0.2-0.2-0.5-0.4-0.9-0.4c-0.3,0-0.6,0.1-0.9,0.2c-0.3,0.1-0.5,0.3-0.7,0.6l-1-1.2c0.3-0.5,0.7-0.8,1.2-1s1-0.3,1.4-0.3
	c0.5,0,1,0.1,1.4,0.3s0.7,0.4,0.9,0.7c0.2,0.3,0.4,0.7,0.5,1.2s0.1,1,0.1,1.6V43l-1.6,0.1l-0.1-1.3c0,0.5-0.3,0.9-0.6,1.1
	C112.8,43.1,112.4,43.2,111.8,43.2z M113.2,39c-0.2,0-0.5,0-0.7,0.1c-0.2,0-0.4,0.1-0.6,0.2c-0.2,0.1-0.3,0.3-0.4,0.4
	c-0.1,0.2-0.1,0.4-0.1,0.7c0,0.4,0.1,0.8,0.3,1c0.2,0.2,0.4,0.3,0.6,0.3s0.5-0.1,0.6-0.2c0.2-0.1,0.3-0.3,0.4-0.5s0.2-0.5,0.2-0.7
	c0-0.3,0.1-0.5,0.1-0.8V39H113.2z"/>
<polygon class="st1" points="117.5,43 117.5,30.3 119.4,30.2 119.5,43 "/>
<polygon class="st1" points="32.1,60.5 32,48.6 37.4,48.5 37.5,50.4 34,50.4 34.1,53.5 37.2,53.5 37.2,55.2 34,55.2 34.1,58.7 
	37.6,58.6 37.6,60.5 "/>
<path class="st1" d="M43.7,60.5l-0.1-5.4c0-0.2,0-0.4,0-0.6c0-0.2-0.1-0.4-0.1-0.6c-0.1-0.2-0.2-0.3-0.3-0.4
	c-0.1-0.1-0.3-0.1-0.5-0.1c-0.4,0-0.7,0.2-1,0.6c-0.2,0.4-0.4,0.9-0.4,1.6v4.9l-1.9,0.1L39.3,52l1.9-0.1l0.1,1.4
	c0.1-0.5,0.3-0.9,0.7-1.2s0.8-0.5,1.4-0.5c0.5,0,0.9,0.1,1.2,0.3s0.5,0.5,0.7,0.8s0.3,0.7,0.3,1.1c0.1,0.4,0.1,0.9,0.1,1.3v5.4H43.7
	z"/>
<path class="st1" d="M50,60.7c-0.7,0-1.3-0.2-1.6-0.7c-0.3-0.4-0.5-1.1-0.5-1.9v-4.8l-1,0.1l-0.1-1.5l1.1-0.1l-0.1-2.1l1.8-0.1
	l0.1,2.2l1.4-0.1l0.1,1.5l-1.5,0.1l0.1,4.3c0,0.5,0.1,0.8,0.2,1c0.1,0.2,0.3,0.3,0.6,0.3c0.1,0,0.2,0,0.3,0s0.2-0.1,0.3-0.1l0.1,1.5
	c-0.2,0.1-0.4,0.2-0.6,0.2C50.4,60.7,50.2,60.7,50,60.7z"/>
<path class="st1" d="M52.6,60.5l-0.1-8.6l1.9-0.1l0.1,1.7c0.1-0.7,0.3-1.2,0.6-1.5s0.7-0.5,1.1-0.5h0.1c0,0,0.1,0,0.2,0l-0.1,2
	c-0.1,0-0.1,0-0.2,0c-0.1,0-0.2,0-0.3,0c-0.2,0-0.4,0.1-0.6,0.2c-0.2,0.1-0.3,0.3-0.5,0.6c-0.1,0.2-0.2,0.5-0.3,0.8
	s-0.1,0.6-0.1,0.9v4.3h-1.8V60.5z"/>
<path class="st1" d="M60.4,60.8c-1,0-1.8-0.4-2.4-1.2c-0.6-0.8-0.9-1.9-0.9-3.4c0-0.7,0.1-1.3,0.2-1.9c0.2-0.6,0.4-1.1,0.7-1.5
	s0.6-0.7,1-0.9s0.9-0.3,1.4-0.3c0.6,0,1,0.1,1.4,0.3s0.7,0.5,1,0.9c0.2,0.4,0.4,0.9,0.5,1.4s0.2,1.1,0.2,1.7v0.7L59,56.7
	c0.1,0.3,0.1,0.6,0.2,0.9c0.1,0.3,0.2,0.5,0.3,0.8c0.1,0.2,0.3,0.4,0.5,0.5s0.4,0.2,0.6,0.2c0.3,0,0.6-0.1,0.8-0.3s0.4-0.5,0.5-0.8
	l1.5,0.8c-0.2,0.7-0.6,1.2-1,1.5C61.7,60.6,61.1,60.8,60.4,60.8z M60.3,53.2c-0.2,0-0.4,0.1-0.6,0.2c-0.2,0.1-0.3,0.3-0.4,0.5
	c-0.1,0.2-0.2,0.4-0.2,0.7C59,54.9,59,55.1,59,55.3l2.6-0.1c-0.1-0.6-0.2-1.1-0.4-1.5C61,53.4,60.7,53.2,60.3,53.2z"/>
<path class="st1" d="M65.1,64.5L65,51.9l1.9-0.1l0.1,1.3c0.1-0.4,0.3-0.8,0.6-1.1c0.3-0.3,0.7-0.4,1.3-0.4c0.5,0,0.9,0.1,1.2,0.4
	c0.3,0.2,0.6,0.6,0.9,1c0.2,0.4,0.4,0.9,0.5,1.5s0.2,1.2,0.2,1.8c0,0.7-0.1,1.3-0.2,1.8c-0.1,0.6-0.3,1.1-0.5,1.5s-0.5,0.8-0.9,1
	S69.3,61,68.9,61c-0.5,0-0.9-0.1-1.3-0.4c-0.3-0.3-0.6-0.6-0.7-1l0.1,5.2h-1.9V64.5z M68.3,53.3c-0.2,0-0.4,0.1-0.6,0.2
	c-0.2,0.1-0.3,0.3-0.4,0.6S67.1,54.7,67,55c0,0.4,0,0.8,0,1.2s0,0.8,0.1,1.1s0.1,0.7,0.3,0.9c0.1,0.3,0.3,0.5,0.4,0.6
	c0.2,0.1,0.4,0.2,0.6,0.2s0.4-0.1,0.6-0.2c0.2-0.1,0.3-0.3,0.4-0.6s0.2-0.6,0.2-0.9c0.1-0.4,0.1-0.7,0.1-1.1s0-0.8-0.1-1.1
	c-0.1-0.4-0.1-0.7-0.2-0.9s-0.2-0.4-0.4-0.6C68.8,53.4,68.6,53.3,68.3,53.3z"/>
<path class="st1" d="M73.4,60.5l-0.1-8.6l1.9-0.1l0.1,1.7c0.1-0.7,0.3-1.2,0.6-1.5c0.3-0.3,0.7-0.5,1.1-0.5h0.1c0,0,0.1,0,0.2,0
	l-0.1,2c-0.1,0-0.1,0-0.2,0s-0.2,0-0.3,0c-0.2,0-0.4,0.1-0.6,0.2c-0.2,0.1-0.3,0.3-0.5,0.6c-0.1,0.2-0.2,0.5-0.3,0.8
	c-0.1,0.3-0.1,0.6-0.1,0.9v4.3h-1.8V60.5z"/>
<path class="st1" d="M81.2,60.8c-1,0-1.8-0.4-2.4-1.2s-0.9-1.9-0.9-3.4c0-0.7,0.1-1.3,0.2-1.9c0.2-0.6,0.4-1.1,0.7-1.5
	c0.3-0.4,0.6-0.7,1-0.9s0.9-0.3,1.4-0.3c0.6,0,1,0.1,1.4,0.3s0.7,0.5,1,0.9c0.2,0.4,0.4,0.9,0.5,1.4s0.2,1.1,0.2,1.7v0.7l-4.5,0.1
	c0.1,0.3,0.1,0.6,0.2,0.9c0.1,0.3,0.2,0.5,0.3,0.8c0.1,0.2,0.3,0.4,0.5,0.5s0.4,0.2,0.6,0.2c0.3,0,0.6-0.1,0.8-0.3
	c0.2-0.2,0.4-0.5,0.5-0.8l1.5,0.8c-0.2,0.7-0.6,1.2-1,1.5C82.6,60.6,82,60.8,81.2,60.8z M81.2,53.2c-0.2,0-0.4,0.1-0.6,0.2
	c-0.2,0.1-0.3,0.3-0.4,0.5S80,54.3,80,54.6c-0.1,0.2-0.1,0.5-0.1,0.7l2.6-0.1c-0.1-0.6-0.2-1.1-0.4-1.5
	C81.9,53.4,81.6,53.2,81.2,53.2z"/>
<path class="st1" d="M90.3,60.5l-0.1-5.4c0-0.2,0-0.4,0-0.6c0-0.2-0.1-0.4-0.1-0.6c-0.1-0.2-0.2-0.3-0.3-0.4
	c-0.1-0.1-0.3-0.1-0.5-0.1c-0.4,0-0.7,0.2-1,0.6c-0.2,0.4-0.4,0.9-0.4,1.6v4.9H86l-0.1-8.6l1.9-0.1l0.1,1.4c0.1-0.5,0.3-0.9,0.7-1.2
	c0.4-0.3,0.8-0.5,1.4-0.5c0.5,0,0.9,0.1,1.2,0.3c0.3,0.2,0.5,0.5,0.7,0.8s0.3,0.7,0.3,1.1c0.1,0.4,0.1,0.9,0.1,1.3v5.4L90.3,60.5
	L90.3,60.5z"/>
<path class="st1" d="M97.2,60.8c-1,0-1.8-0.4-2.4-1.2s-0.9-1.9-0.9-3.4c0-0.7,0.1-1.3,0.2-1.9c0.2-0.6,0.4-1.1,0.7-1.5
	c0.3-0.4,0.6-0.7,1-0.9s0.9-0.3,1.4-0.3c0.6,0,1,0.1,1.4,0.3s0.7,0.5,1,0.9c0.2,0.4,0.4,0.9,0.5,1.4s0.2,1.1,0.2,1.7v0.7l-4.5,0.1
	c0.1,0.3,0.1,0.6,0.2,0.9c0.1,0.3,0.2,0.5,0.3,0.8c0.1,0.2,0.3,0.4,0.5,0.5s0.4,0.2,0.6,0.2c0.3,0,0.6-0.1,0.8-0.3
	c0.2-0.2,0.4-0.5,0.5-0.8l1.5,0.8c-0.2,0.7-0.6,1.2-1,1.5C98.5,60.6,97.9,60.8,97.2,60.8z M97.2,53.2c-0.2,0-0.4,0.1-0.6,0.2
	c-0.2,0.1-0.3,0.3-0.4,0.5S96,54.3,96,54.6c-0.1,0.2-0.1,0.5-0.1,0.7l2.6-0.1c-0.1-0.6-0.2-1.1-0.4-1.5
	C97.9,53.4,97.6,53.2,97.2,53.2z"/>
<path class="st1" d="M104,60.8c-0.5,0-0.9-0.1-1.2-0.3c-0.3-0.2-0.5-0.5-0.7-0.8s-0.3-0.7-0.3-1.1c-0.1-0.4-0.1-0.8-0.1-1.3v-5.4
	l1.9-0.1l0.1,5.4c0,0.2,0,0.4,0,0.6c0,0.2,0.1,0.4,0.1,0.6c0.1,0.2,0.2,0.3,0.3,0.4c0.1,0.1,0.3,0.1,0.5,0.1c0.4,0,0.7-0.2,1-0.6
	c0.2-0.4,0.4-0.9,0.4-1.6v-4.9l1.9-0.1l0.1,8.6l-1.9,0.1L106,59c-0.1,0.5-0.3,0.9-0.7,1.2C105.1,60.6,104.6,60.8,104,60.8z"/>
<path class="st1" d="M110.4,60.5l-0.1-8.6l1.9-0.1l0.1,1.7c0.1-0.7,0.3-1.2,0.6-1.5c0.3-0.3,0.7-0.5,1.1-0.5h0.1c0,0,0.1,0,0.2,0
	l-0.1,2c-0.1,0-0.1,0-0.2,0s-0.2,0-0.3,0c-0.2,0-0.4,0.1-0.6,0.2c-0.2,0.1-0.3,0.3-0.5,0.6c-0.1,0.2-0.2,0.5-0.3,0.8
	c-0.1,0.3-0.1,0.6-0.1,0.9v4.3h-1.8V60.5z"/>
<path class="st1" d="M117.3,60.8c-0.5,0-1.1-0.1-1.5-0.3c-0.5-0.2-0.9-0.5-1.2-0.9l1-1.3c0.3,0.2,0.5,0.4,0.8,0.6
	c0.3,0.2,0.6,0.2,0.9,0.2s0.5-0.1,0.7-0.3s0.3-0.5,0.3-0.8c0-0.4-0.1-0.7-0.4-0.8c-0.3-0.2-0.6-0.3-1-0.5c-0.2-0.1-0.4-0.2-0.7-0.3
	c-0.2-0.1-0.4-0.3-0.6-0.5s-0.3-0.4-0.4-0.7s-0.2-0.6-0.2-1s0.1-0.8,0.2-1.1c0.2-0.3,0.4-0.6,0.6-0.8s0.5-0.4,0.9-0.5
	c0.3-0.1,0.7-0.2,1-0.2c0.5,0,1,0.1,1.4,0.3s0.8,0.4,1.1,0.7l-1,1.3c-0.2-0.2-0.4-0.4-0.7-0.5c-0.2-0.1-0.5-0.2-0.8-0.2
	s-0.5,0.1-0.7,0.3s-0.3,0.4-0.3,0.7s0.1,0.5,0.3,0.7c0.2,0.1,0.5,0.3,0.9,0.5c0.2,0.1,0.5,0.2,0.7,0.3s0.5,0.3,0.7,0.5
	s0.4,0.5,0.5,0.7c0.1,0.3,0.2,0.6,0.2,1c0,0.5-0.1,0.9-0.2,1.3c-0.2,0.4-0.4,0.7-0.6,0.9c-0.3,0.2-0.6,0.4-0.9,0.5
	C118,60.7,117.7,60.8,117.3,60.8z"/>
<polygon class="st1" points="62.1,78 62,66.1 67.4,66 67.5,67.9 64.1,68 64.2,71.2 67.2,71.1 67.2,72.9 64.1,72.9 64.2,78 "/>
<path class="st1" d="M71.4,78.3c-0.5,0-1-0.1-1.4-0.3c-0.4-0.2-0.8-0.5-1.1-0.9c-0.3-0.4-0.5-0.9-0.7-1.5S68,74.4,68,73.7
	c0-0.7,0.1-1.3,0.2-1.9c0.2-0.6,0.4-1.1,0.7-1.5c0.3-0.4,0.6-0.7,1.1-0.9c0.4-0.2,0.9-0.3,1.4-0.3s1,0.1,1.4,0.3
	c0.4,0.2,0.8,0.5,1.1,0.9c0.3,0.4,0.5,0.9,0.7,1.5s0.2,1.2,0.2,1.9c0,0.7-0.1,1.3-0.2,1.9c-0.2,0.6-0.4,1.1-0.7,1.5
	c-0.3,0.4-0.6,0.7-1.1,0.9C72.4,78.2,71.9,78.3,71.4,78.3z M71.4,70.8c-0.2,0-0.4,0.1-0.6,0.2s-0.3,0.3-0.4,0.6
	c-0.1,0.3-0.2,0.6-0.2,0.9c-0.1,0.3-0.1,0.7-0.1,1.1s0,0.8,0.1,1.1c0.1,0.4,0.1,0.7,0.2,0.9c0.1,0.2,0.2,0.4,0.4,0.6
	c0.2,0.1,0.4,0.2,0.6,0.2s0.4-0.1,0.6-0.2s0.3-0.3,0.4-0.6c0.1-0.3,0.2-0.6,0.2-0.9c0.1-0.4,0.1-0.7,0.1-1.1s0-0.8-0.1-1.1
	c-0.1-0.3-0.1-0.7-0.3-0.9c-0.1-0.3-0.3-0.5-0.4-0.6C71.8,70.9,71.6,70.8,71.4,70.8z"/>
<path class="st1" d="M76.5,78l-0.1-8.6l1.9-0.1l0.1,1.7c0.1-0.7,0.3-1.2,0.6-1.5c0.3-0.3,0.7-0.5,1.1-0.5h0.1c0,0,0.1,0,0.2,0
	l-0.1,2c-0.1,0-0.1,0-0.2,0s-0.2,0-0.3,0c-0.2,0-0.4,0.1-0.6,0.2s-0.3,0.3-0.5,0.6c-0.1,0.2-0.2,0.5-0.3,0.8
	c-0.1,0.3-0.1,0.6-0.1,0.9V78H76.5z"/>
<path class="st1" d="M87.2,78.3c-0.7,0-1.3-0.1-1.8-0.4c-0.6-0.3-1-0.6-1.4-1l1.1-1.5c0.3,0.3,0.6,0.5,1,0.7s0.7,0.3,1.1,0.3
	s0.7-0.1,1-0.4s0.4-0.7,0.4-1.2s-0.2-0.9-0.5-1.2c-0.3-0.3-0.8-0.6-1.3-0.8c-0.3-0.2-0.6-0.3-0.9-0.5s-0.5-0.4-0.8-0.7
	c-0.2-0.3-0.4-0.6-0.5-0.9s-0.2-0.8-0.2-1.3c0-0.6,0.1-1.2,0.3-1.6c0.2-0.4,0.5-0.8,0.8-1.1c0.3-0.3,0.7-0.5,1.1-0.7
	c0.4-0.1,0.8-0.2,1.2-0.2c0.6,0,1.2,0.1,1.6,0.3c0.5,0.2,0.9,0.5,1.2,0.9l-1.1,1.5c-0.5-0.5-1-0.8-1.7-0.8c-0.2,0-0.4,0-0.5,0.1
	c-0.2,0.1-0.3,0.2-0.5,0.3c-0.1,0.1-0.2,0.3-0.3,0.5c-0.1,0.2-0.1,0.5-0.1,0.7c0,0.5,0.1,0.9,0.4,1.1c0.3,0.3,0.7,0.5,1.2,0.8
	c0.3,0.1,0.6,0.3,0.9,0.5s0.6,0.4,0.8,0.7c0.2,0.3,0.5,0.6,0.6,1s0.2,0.8,0.2,1.3c0,0.6-0.1,1.1-0.3,1.6c-0.2,0.5-0.4,0.8-0.8,1.1
	c-0.3,0.3-0.7,0.5-1.1,0.7C88.1,78.2,87.7,78.3,87.2,78.3z"/>
<path class="st1" d="M95.2,78.3c-0.5,0-1-0.1-1.4-0.3c-0.4-0.2-0.8-0.5-1.1-0.9c-0.3-0.4-0.5-0.9-0.7-1.5s-0.2-1.2-0.2-1.9
	c0-0.7,0.1-1.3,0.2-1.9c0.2-0.6,0.4-1.1,0.7-1.5c0.3-0.4,0.6-0.7,1.1-0.9c0.4-0.2,0.9-0.3,1.4-0.3s1,0.1,1.4,0.3
	c0.4,0.2,0.8,0.5,1.1,0.9c0.3,0.4,0.5,0.9,0.7,1.5s0.2,1.2,0.2,1.9c0,0.7-0.1,1.3-0.2,1.9c-0.2,0.6-0.4,1.1-0.7,1.5
	c-0.3,0.4-0.6,0.7-1.1,0.9C96.2,78.2,95.7,78.3,95.2,78.3z M95.2,70.8c-0.2,0-0.4,0.1-0.6,0.2s-0.3,0.3-0.4,0.6
	c-0.1,0.3-0.2,0.6-0.2,0.9c-0.1,0.3-0.1,0.7-0.1,1.1s0,0.8,0.1,1.1c0.1,0.4,0.1,0.7,0.2,0.9c0.1,0.2,0.2,0.4,0.4,0.6
	c0.2,0.1,0.4,0.2,0.6,0.2s0.4-0.1,0.6-0.2s0.3-0.3,0.4-0.6c0.1-0.3,0.2-0.6,0.2-0.9c0.1-0.4,0.1-0.7,0.1-1.1s0-0.8-0.1-1.1
	c-0.1-0.3-0.1-0.7-0.3-0.9c-0.1-0.3-0.3-0.5-0.4-0.6C95.6,70.9,95.4,70.8,95.2,70.8z"/>
<path class="st1" d="M102.9,78.3c-0.5,0-1-0.1-1.4-0.3c-0.4-0.2-0.8-0.6-1-1c-0.3-0.4-0.5-0.9-0.6-1.5s-0.2-1.2-0.2-1.9
	c0-0.7,0.1-1.3,0.2-1.9s0.4-1.1,0.6-1.5c0.3-0.4,0.6-0.7,1-0.9c0.4-0.2,0.9-0.3,1.4-0.3s0.9,0.1,1.2,0.2c0.3,0.2,0.6,0.3,0.8,0.5
	l-0.8,1.5c-0.2-0.1-0.3-0.2-0.5-0.3c-0.2-0.1-0.3-0.1-0.6-0.1c-0.4,0-0.8,0.2-1,0.7s-0.4,1.2-0.4,2s0.1,1.5,0.4,2
	c0.2,0.5,0.6,0.7,1.1,0.7c0.2,0,0.4,0,0.6-0.1s0.3-0.2,0.4-0.4l0.9,1.5c-0.2,0.3-0.5,0.5-0.9,0.7C103.8,78.2,103.4,78.3,102.9,78.3z
	"/>
<path class="st1" d="M106.1,78l-0.1-8.6l1.9-0.1L108,78H106.1z M107,68.2c-0.3,0-0.6-0.1-0.8-0.4c-0.2-0.2-0.3-0.5-0.3-0.9
	c0-0.3,0.1-0.6,0.3-0.9c0.2-0.2,0.5-0.4,0.8-0.4s0.6,0.1,0.8,0.4c0.2,0.2,0.3,0.5,0.3,0.9c0,0.3-0.1,0.6-0.3,0.9
	S107.4,68.2,107,68.2z"/>
<path class="st1" d="M111.8,78.2c-0.2,0-0.5,0-0.8-0.1s-0.5-0.2-0.7-0.5c-0.2-0.2-0.4-0.5-0.5-0.8s-0.2-0.7-0.2-1.2
	c0-0.6,0.1-1.1,0.3-1.5c0.2-0.4,0.5-0.7,0.9-0.9c0.3-0.2,0.7-0.4,1.2-0.5c0.4-0.1,0.8-0.1,1.2-0.1h0.5l-0.1-0.2c0-0.6-0.1-1-0.3-1.2
	c-0.2-0.2-0.5-0.4-0.9-0.4c-0.3,0-0.6,0.1-0.9,0.2s-0.5,0.3-0.7,0.6l-1-1.2c0.3-0.5,0.7-0.8,1.2-1s1-0.3,1.4-0.3
	c0.5,0,1,0.1,1.4,0.3c0.4,0.2,0.7,0.4,0.9,0.7c0.2,0.3,0.4,0.7,0.5,1.2s0.1,1,0.1,1.6V78l-1.6,0.1l-0.1-1.3c0,0.5-0.3,0.9-0.6,1.1
	C112.8,78.1,112.4,78.2,111.8,78.2z M113.2,74c-0.2,0-0.5,0-0.7,0.1c-0.2,0-0.4,0.1-0.6,0.2s-0.3,0.3-0.4,0.4
	c-0.1,0.2-0.1,0.4-0.1,0.7c0,0.4,0.1,0.8,0.3,1c0.2,0.2,0.4,0.3,0.6,0.3s0.5-0.1,0.6-0.2c0.2-0.1,0.3-0.3,0.4-0.5s0.2-0.5,0.2-0.7
	c0-0.3,0.1-0.5,0.1-0.8V74H113.2z"/>
<polygon class="st1" points="117.5,78 117.5,65.3 119.4,65.2 119.5,78 "/>
<polygon class="st1" points="32.1,95.5 32,83.6 37.4,83.5 37.5,85.4 34,85.4 34.1,88.5 37.2,88.5 37.2,90.2 34,90.2 34.1,93.7 
	37.6,93.6 37.6,95.5 "/>
<path class="st1" d="M43.7,95.5l-0.1-5.4c0-0.2,0-0.4,0-0.6s-0.1-0.4-0.1-0.6c-0.1-0.2-0.2-0.3-0.3-0.4s-0.3-0.1-0.5-0.1
	c-0.4,0-0.7,0.2-1,0.6c-0.2,0.4-0.4,0.9-0.4,1.6v4.9l-1.9,0.1L39.3,87l1.9-0.1l0.1,1.4c0.1-0.5,0.3-0.9,0.7-1.2
	c0.4-0.3,0.8-0.5,1.4-0.5c0.5,0,0.9,0.1,1.2,0.3c0.3,0.2,0.5,0.5,0.7,0.8s0.3,0.7,0.3,1.1c0.1,0.4,0.1,0.9,0.1,1.3v5.4L43.7,95.5
	L43.7,95.5z"/>
<path class="st1" d="M50,95.7c-0.7,0-1.3-0.2-1.6-0.7c-0.3-0.4-0.5-1.1-0.5-1.9v-4.8l-1,0.1l-0.1-1.5l1.1-0.1l-0.1-2.1l1.8-0.1
	l0.1,2.2l1.4-0.1l0.1,1.5l-1.5,0.1l0.1,4.3c0,0.5,0.1,0.8,0.2,1c0.1,0.2,0.3,0.3,0.6,0.3c0.1,0,0.2,0,0.3,0s0.2-0.1,0.3-0.1l0.1,1.5
	c-0.2,0.1-0.4,0.2-0.6,0.2C50.4,95.7,50.2,95.7,50,95.7z"/>
<path class="st1" d="M52.6,95.5l-0.1-8.6l1.9-0.1l0.1,1.7c0.1-0.7,0.3-1.2,0.6-1.5s0.7-0.5,1.1-0.5h0.1c0,0,0.1,0,0.2,0l-0.1,2
	c-0.1,0-0.1,0-0.2,0c-0.1,0-0.2,0-0.3,0c-0.2,0-0.4,0.1-0.6,0.2c-0.2,0.1-0.3,0.3-0.5,0.6c-0.1,0.2-0.2,0.5-0.3,0.8
	s-0.1,0.6-0.1,0.9v4.3h-1.8V95.5z"/>
<path class="st1" d="M60.4,95.8c-1,0-1.8-0.4-2.4-1.2c-0.6-0.8-0.9-1.9-0.9-3.4c0-0.7,0.1-1.3,0.2-1.9c0.2-0.6,0.4-1.1,0.7-1.5
	s0.6-0.7,1-0.9c0.4-0.2,0.9-0.3,1.4-0.3c0.6,0,1,0.1,1.4,0.3c0.4,0.2,0.7,0.5,1,0.9c0.2,0.4,0.4,0.9,0.5,1.4s0.2,1.1,0.2,1.7v0.7
	L59,91.7c0.1,0.3,0.1,0.6,0.2,0.9c0.1,0.3,0.2,0.5,0.3,0.8c0.1,0.2,0.3,0.4,0.5,0.5s0.4,0.2,0.6,0.2c0.3,0,0.6-0.1,0.8-0.3
	c0.2-0.2,0.4-0.5,0.5-0.8l1.5,0.8c-0.2,0.7-0.6,1.2-1,1.5C61.7,95.6,61.1,95.8,60.4,95.8z M60.3,88.2c-0.2,0-0.4,0.1-0.6,0.2
	c-0.2,0.1-0.3,0.3-0.4,0.5c-0.1,0.2-0.2,0.4-0.2,0.7C59,89.9,59,90.1,59,90.3l2.6-0.1c-0.1-0.6-0.2-1.1-0.4-1.5
	C61,88.4,60.7,88.2,60.3,88.2z"/>
<path class="st1" d="M65.1,99.5L65,86.9l1.9-0.1l0.1,1.3c0.1-0.4,0.3-0.8,0.6-1.1c0.3-0.3,0.7-0.4,1.3-0.4c0.5,0,0.9,0.1,1.2,0.4
	c0.3,0.2,0.6,0.6,0.9,1c0.2,0.4,0.4,0.9,0.5,1.5s0.2,1.2,0.2,1.8c0,0.7-0.1,1.3-0.2,1.8c-0.1,0.6-0.3,1.1-0.5,1.5s-0.5,0.8-0.9,1
	S69.3,96,68.9,96c-0.5,0-0.9-0.1-1.3-0.4c-0.3-0.3-0.6-0.6-0.7-1l0.1,5.2h-1.9V99.5z M68.3,88.3c-0.2,0-0.4,0.1-0.6,0.2
	s-0.3,0.3-0.4,0.6c-0.1,0.3-0.2,0.6-0.3,0.9c0,0.4,0,0.8,0,1.2s0,0.8,0.1,1.1c0.1,0.3,0.1,0.7,0.3,0.9c0.1,0.3,0.3,0.5,0.4,0.6
	c0.2,0.1,0.4,0.2,0.6,0.2s0.4-0.1,0.6-0.2s0.3-0.3,0.4-0.6c0.1-0.3,0.2-0.6,0.2-0.9c0.1-0.4,0.1-0.7,0.1-1.1s0-0.8-0.1-1.1
	c-0.1-0.4-0.1-0.7-0.2-0.9c-0.1-0.2-0.2-0.4-0.4-0.6C68.8,88.4,68.6,88.3,68.3,88.3z"/>
<path class="st1" d="M73.4,95.5l-0.1-8.6l1.9-0.1l0.1,1.7c0.1-0.7,0.3-1.2,0.6-1.5c0.3-0.3,0.7-0.5,1.1-0.5h0.1c0,0,0.1,0,0.2,0
	l-0.1,2c-0.1,0-0.1,0-0.2,0s-0.2,0-0.3,0c-0.2,0-0.4,0.1-0.6,0.2s-0.3,0.3-0.5,0.6c-0.1,0.2-0.2,0.5-0.3,0.8
	c-0.1,0.3-0.1,0.6-0.1,0.9v4.3h-1.8V95.5z"/>
<path class="st1" d="M81.2,95.8c-1,0-1.8-0.4-2.4-1.2c-0.6-0.8-0.9-1.9-0.9-3.4c0-0.7,0.1-1.3,0.2-1.9c0.2-0.6,0.4-1.1,0.7-1.5
	c0.3-0.4,0.6-0.7,1-0.9c0.4-0.2,0.9-0.3,1.4-0.3c0.6,0,1,0.1,1.4,0.3c0.4,0.2,0.7,0.5,1,0.9c0.2,0.4,0.4,0.9,0.5,1.4
	s0.2,1.1,0.2,1.7v0.7l-4.5,0.1c0.1,0.3,0.1,0.6,0.2,0.9s0.2,0.5,0.3,0.8c0.1,0.2,0.3,0.4,0.5,0.5s0.4,0.2,0.6,0.2
	c0.3,0,0.6-0.1,0.8-0.3c0.2-0.2,0.4-0.5,0.5-0.8l1.5,0.8c-0.2,0.7-0.6,1.2-1,1.5C82.6,95.6,82,95.8,81.2,95.8z M81.2,88.2
	c-0.2,0-0.4,0.1-0.6,0.2s-0.3,0.3-0.4,0.5S80,89.3,80,89.6c-0.1,0.2-0.1,0.5-0.1,0.7l2.6-0.1c-0.1-0.6-0.2-1.1-0.4-1.5
	C81.9,88.4,81.6,88.2,81.2,88.2z"/>
<path class="st1" d="M90.3,95.5l-0.1-5.4c0-0.2,0-0.4,0-0.6s-0.1-0.4-0.1-0.6c-0.1-0.2-0.2-0.3-0.3-0.4c-0.1-0.1-0.3-0.1-0.5-0.1
	c-0.4,0-0.7,0.2-1,0.6c-0.2,0.4-0.4,0.9-0.4,1.6v4.9H86l-0.1-8.6l1.9-0.1l0.1,1.4c0.1-0.5,0.3-0.9,0.7-1.2c0.4-0.3,0.8-0.5,1.4-0.5
	c0.5,0,0.9,0.1,1.2,0.3c0.3,0.2,0.5,0.5,0.7,0.8s0.3,0.7,0.3,1.1c0.1,0.4,0.1,0.9,0.1,1.3v5.4L90.3,95.5L90.3,95.5z"/>
<path class="st1" d="M97.2,95.8c-1,0-1.8-0.4-2.4-1.2c-0.6-0.8-0.9-1.9-0.9-3.4c0-0.7,0.1-1.3,0.2-1.9c0.2-0.6,0.4-1.1,0.7-1.5
	c0.3-0.4,0.6-0.7,1-0.9c0.4-0.2,0.9-0.3,1.4-0.3c0.6,0,1,0.1,1.4,0.3c0.4,0.2,0.7,0.5,1,0.9c0.2,0.4,0.4,0.9,0.5,1.4
	s0.2,1.1,0.2,1.7v0.7l-4.5,0.1c0.1,0.3,0.1,0.6,0.2,0.9s0.2,0.5,0.3,0.8c0.1,0.2,0.3,0.4,0.5,0.5s0.4,0.2,0.6,0.2
	c0.3,0,0.6-0.1,0.8-0.3c0.2-0.2,0.4-0.5,0.5-0.8l1.5,0.8c-0.2,0.7-0.6,1.2-1,1.5C98.5,95.6,97.9,95.8,97.2,95.8z M97.2,88.2
	c-0.2,0-0.4,0.1-0.6,0.2s-0.3,0.3-0.4,0.5S96,89.3,96,89.6c-0.1,0.2-0.1,0.5-0.1,0.7l2.6-0.1c-0.1-0.6-0.2-1.1-0.4-1.5
	C97.9,88.4,97.6,88.2,97.2,88.2z"/>
<path class="st1" d="M104,95.8c-0.5,0-0.9-0.1-1.2-0.3c-0.3-0.2-0.5-0.5-0.7-0.8s-0.3-0.7-0.3-1.1c-0.1-0.4-0.1-0.8-0.1-1.3v-5.4
	l1.9-0.1l0.1,5.4c0,0.2,0,0.4,0,0.6s0.1,0.4,0.1,0.6c0.1,0.2,0.2,0.3,0.3,0.4c0.1,0.1,0.3,0.1,0.5,0.1c0.4,0,0.7-0.2,1-0.6
	c0.2-0.4,0.4-0.9,0.4-1.6v-4.9l1.9-0.1l0.1,8.6l-1.9,0.1L106,94c-0.1,0.5-0.3,0.9-0.7,1.2C105.1,95.6,104.6,95.8,104,95.8z"/>
<path class="st1" d="M110.4,95.5l-0.1-8.6l1.9-0.1l0.1,1.7c0.1-0.7,0.3-1.2,0.6-1.5c0.3-0.3,0.7-0.5,1.1-0.5h0.1c0,0,0.1,0,0.2,0
	l-0.1,2c-0.1,0-0.1,0-0.2,0s-0.2,0-0.3,0c-0.2,0-0.4,0.1-0.6,0.2s-0.3,0.3-0.5,0.6c-0.1,0.2-0.2,0.5-0.3,0.8
	c-0.1,0.3-0.1,0.6-0.1,0.9v4.3h-1.8V95.5z"/>
<path class="st1" d="M117.3,95.8c-0.5,0-1.1-0.1-1.5-0.3c-0.5-0.2-0.9-0.5-1.2-0.9l1-1.3c0.3,0.2,0.5,0.4,0.8,0.6s0.6,0.2,0.9,0.2
	s0.5-0.1,0.7-0.3c0.2-0.2,0.3-0.5,0.3-0.8c0-0.4-0.1-0.7-0.4-0.8c-0.3-0.2-0.6-0.3-1-0.5c-0.2-0.1-0.4-0.2-0.7-0.3
	c-0.2-0.1-0.4-0.3-0.6-0.5s-0.3-0.4-0.4-0.7c-0.1-0.3-0.2-0.6-0.2-1s0.1-0.8,0.2-1.1c0.2-0.3,0.4-0.6,0.6-0.8
	c0.2-0.2,0.5-0.4,0.9-0.5c0.3-0.1,0.7-0.2,1-0.2c0.5,0,1,0.1,1.4,0.3c0.4,0.2,0.8,0.4,1.1,0.7l-1,1.3c-0.2-0.2-0.4-0.4-0.7-0.5
	c-0.2-0.1-0.5-0.2-0.8-0.2s-0.5,0.1-0.7,0.3c-0.2,0.2-0.3,0.4-0.3,0.7c0,0.3,0.1,0.5,0.3,0.7c0.2,0.1,0.5,0.3,0.9,0.5
	c0.2,0.1,0.5,0.2,0.7,0.3c0.2,0.1,0.5,0.3,0.7,0.5s0.4,0.5,0.5,0.7c0.1,0.3,0.2,0.6,0.2,1c0,0.5-0.1,0.9-0.2,1.3
	c-0.2,0.4-0.4,0.7-0.6,0.9c-0.3,0.2-0.6,0.4-0.9,0.5C118,95.7,117.7,95.8,117.3,95.8z"/>
<g>
	<g>
		<g>
			<path class="st2" d="M30.9,170.8v-67.1H47v67.1H30.9z"/>
		</g>
		<g>
			<path class="st2" d="M76.9,172.7c-16.8,0-26.1-8.2-26.1-20.8v-3.3h14.7v2c0,6.7,4.6,9.6,11.2,9.6s9.3-3.1,9.3-7.7
				c0-11.9-34.1-8.6-34.1-30.1c0-11.3,9.1-20.6,24.6-20.6c15.6,0,25,8.6,25,20.3v3.3H86.7v-2c0-5.2-3.5-9.1-10.3-9.1
				c-5.7,0-9.1,2.9-9.1,7.4c0,11.4,34.3,8.2,34.3,29.6C101.7,163.1,93.1,172.7,76.9,172.7z"/>
		</g>
		<g>
			<path class="st2" d="M130,172.7c-16.8,0-26.1-8.2-26.1-20.8v-3.3h14.7v2c0,6.7,4.6,9.6,11.2,9.6s9.3-3.1,9.3-7.7
				c0-11.9-34.1-8.6-34.1-30.1c0-11.3,9.1-20.6,24.6-20.6c15.6,0,25,8.6,25,20.3v3.3h-14.7v-2c0-5.2-3.5-9.1-10.3-9.1
				c-5.7,0-9.1,2.9-9.1,7.4c0,11.4,34.3,8.2,34.3,29.6C154.8,163.1,146.2,172.7,130,172.7z"/>
		</g>
		<g>
			<path class="st2" d="M184.9,172.7c-16.3,0-26.3-9.3-26.3-22v-47.1h16.3v46.5c0,5.9,3.5,9.6,10.4,9.6s10.3-3.6,10.3-9.6v-46.5H211
				v47.1C211,163.3,201.6,172.7,184.9,172.7z"/>
		</g>
		<g>
			<path class="st2" d="M214.3,170.8v-67.1h45.3v13h-29.1v14.1h20.4v13h-20.4v14.1h29.1v13h-45.3V170.8z"/>
		</g>
	</g>
	<g>
		<path class="st2" d="M171.1,63.1l-0.6-0.3l0.6-0.3c4.8-2.1,7.4-6.4,7.4-12.3v-3.6c0-10.2-7.2-16.3-19.3-16.3h-29.6v66.1h30
			c12.2,0,19.5-6.1,19.5-16.3v-4.8C179.1,69.5,176.3,65.3,171.1,63.1z M146.7,44.5h9.9c3.6,0,5.5,0.6,5.5,4v4.3
			c0,3.6-2.1,3.6-5.9,3.6h-9.5V44.5z M162.3,78.5c0,2-0.7,3.9-5.5,3.9h-10.1v-12h10c3.5,0,5.6,0,5.6,3.6V78.5z"/>
		<polygon class="st2" points="184,96.5 201.1,96.5 201.1,30.4 184,30.4 		"/>
		<path class="st2" d="M232.8,28.7c-16,0-26.8,9.7-26.8,24.2V74c0,14.6,10.8,24.3,26.8,24.3s26.7-9.8,26.7-24.3V56.4h-26.4v14.1h9.2
			v4.3c0,5.8-3.6,9.5-9.4,9.5c-5.9,0-9.4-3.5-9.4-9.5V52.2c0-6,3.5-9.6,9.4-9.6c5.2,0,8.6,2.8,9.3,7.7h17.3
			C258.2,37.2,247.8,28.7,232.8,28.7L232.8,28.7z"/>
	</g>
</g>
<path class="st1" d="M129.6,187H14.3V14.3H276V187h-16.6l0.1,14.3h30.9V0H0v201.3h129.6V187z"/>
<g>
	<rect x="136.8" y="179.6" class="st2" width="5.9" height="29.1"/>
	<polygon class="st2" points="162.1,208.8 152.4,190.4 152.4,208.8 146.8,208.8 146.8,179.6 152.6,179.6 162.3,198.1 162.3,179.6 
		167.9,179.6 167.9,208.8 	"/>
	<polygon class="st2" points="177.4,208.8 169.3,179.6 175.4,179.6 180.6,199 185.9,179.6 192,179.6 183.8,208.8 	"/>
	<polygon class="st2" points="193.4,208.8 193.4,179.6 212.2,179.6 212.2,185.5 199.3,185.5 199.3,191 208.6,191 208.6,196.5 
		199.3,196.5 199.3,202.9 212.4,202.9 212.4,208.8 	"/>
	<path class="st2" d="M224.6,209.4c-1.4,0-2.7-0.2-4-0.6c-1.3-0.4-2.4-1-3.4-1.9c-1-0.8-1.8-1.9-2.4-3.3c-0.6-1.3-0.9-2.9-0.8-4.7
		v-0.3h5.7v0.3c0,0.9,0.1,1.7,0.4,2.3s0.6,1.1,1.1,1.5s1,0.7,1.6,0.9s1.3,0.3,2,0.3c0.5,0,1,0,1.5-0.1s1-0.3,1.4-0.5s0.8-0.6,1.1-1
		s0.4-1,0.4-1.6c0-0.7-0.2-1.3-0.6-1.7c-0.4-0.4-0.9-0.8-1.6-1.1c-0.7-0.3-1.4-0.6-2.3-0.8c-0.9-0.2-1.8-0.5-2.6-0.8
		c-0.9-0.3-1.8-0.6-2.7-1s-1.7-0.9-2.4-1.5s-1.3-1.4-1.7-2.4s-0.7-2.1-0.7-3.5c0-1.5,0.3-2.8,0.8-3.9c0.5-1.1,1.3-2.1,2.2-2.8
		s1.9-1.3,3-1.7s2.2-0.5,3.3-0.5c1.3,0,2.5,0.2,3.7,0.5s2.3,0.9,3.2,1.7s1.7,1.8,2.2,3s0.8,2.7,0.8,4.3v0.3h-5.7v-0.3
		c0-0.8-0.2-1.5-0.4-2s-0.6-0.9-0.9-1.2c-0.4-0.3-0.9-0.5-1.4-0.6s-1.1-0.2-1.8-0.2c-0.4,0-0.8,0.1-1.2,0.2
		c-0.4,0.1-0.8,0.3-1.1,0.5s-0.6,0.5-0.8,0.9s-0.3,0.8-0.3,1.4c0,0.5,0.1,0.9,0.2,1.2c0.2,0.3,0.5,0.6,1,0.8
		c0.5,0.3,1.2,0.6,2.2,0.9c0.9,0.3,2.2,0.7,3.7,1.1c0.4,0.1,1.1,0.3,1.9,0.6c0.8,0.3,1.7,0.8,2.5,1.4c0.8,0.6,1.5,1.5,2.1,2.5
		c0.6,1.1,0.9,2.4,0.9,4.1c0,1.3-0.2,2.6-0.7,3.7c-0.4,1.2-1.1,2.2-2,3s-2,1.5-3.3,2C227.7,209.2,226.2,209.4,224.6,209.4z"/>
	<polygon class="st2" points="242.9,208.8 242.9,185.5 235.6,185.5 235.6,179.6 256.1,179.6 256.1,185.5 248.8,185.5 248.8,208.8 	
		"/>
</g>
</svg>
