<svg id="Layer_1" data-name="Layer 1" xmlns="http://www.w3.org/2000/svg" viewBox="0 0 234.61 71.94"><defs><style>.cls-1{fill:#7f8080;}.cls-2{fill:#9a9999;}</style></defs><title>insp-logo</title><path class="cls-1" d="M217.74,83.22V93H216V83.22h1.71Z" transform="translate(-74.46 -67.29)"/><path class="cls-1" d="M221.88,93H220.2V85.61h1.68v1.14a2.64,2.64,0,0,1,2.29-1.29,2.52,2.52,0,0,1,2.61,2.82V93h-1.68V88.78A1.54,1.54,0,0,0,223.54,87a1.63,1.63,0,0,0-1.65,1.82V93Z" transform="translate(-74.46 -67.29)"/><path class="cls-1" d="M230.9,90.66a0.8,0.8,0,0,0,.9.92,2.27,2.27,0,0,0,1-.25V92.7a2.94,2.94,0,0,1-1.52.38,1.88,1.88,0,0,1-2.11-2.15V87.06h-0.93V85.61h0.93v-2h1.68v2h2v1.45h-2v3.6Z" transform="translate(-74.46 -67.29)"/><path class="cls-1" d="M237.81,91.74a2.67,2.67,0,0,0,2-.88l1,0.88a3.71,3.71,0,0,1-3,1.38,3.83,3.83,0,0,1-.18-7.66c2.34,0,3.52,1.84,3.52,4,0,0.15,0,.29,0,0.46H235.7A2.06,2.06,0,0,0,237.81,91.74Zm1.64-3a1.91,1.91,0,0,0-1.86-1.93,2,2,0,0,0-1.9,1.93h3.77Z" transform="translate(-74.46 -67.29)"/><path class="cls-1" d="M244.55,93h-1.68V85.61h1.68v1.65a2.6,2.6,0,0,1,2.6-1.79v1.78h-0.1c-1.47,0-2.5,1-2.5,2.91V93Z" transform="translate(-74.46 -67.29)"/><path class="cls-1" d="M250.35,93h-1.68V85.61h1.68v1.14a2.64,2.64,0,0,1,2.29-1.29,2.52,2.52,0,0,1,2.61,2.82V93h-1.68V88.78A1.54,1.54,0,0,0,252,87a1.63,1.63,0,0,0-1.65,1.82V93Z" transform="translate(-74.46 -67.29)"/><path class="cls-1" d="M261.83,93V92a3,3,0,0,1-2.38,1.06,2.35,2.35,0,0,1-2.61-2.27v0c0-1.59,1.27-2.36,3-2.36a6.18,6.18,0,0,1,2,.31V88.57A1.53,1.53,0,0,0,260,87a5.12,5.12,0,0,0-2.1.46l-0.46-1.35a6.3,6.3,0,0,1,2.79-.61c2.17,0,3.23,1.14,3.23,3.1V93h-1.67Zm0-3.11a4.82,4.82,0,0,0-1.68-.29c-1.06,0-1.68.43-1.68,1.18v0a1.22,1.22,0,0,0,1.42,1.08,1.71,1.71,0,0,0,1.95-1.54V89.84Z" transform="translate(-74.46 -67.29)"/><path class="cls-1" d="M267.51,90.66a0.8,0.8,0,0,0,.9.92,2.27,2.27,0,0,0,1-.25V92.7a3,3,0,0,1-1.52.38,1.88,1.88,0,0,1-2.11-2.15V87.06H264.9V85.61h0.93v-2h1.68v2h2v1.45h-2v3.6Z" transform="translate(-74.46 -67.29)"/><path class="cls-1" d="M271.27,84.48v-1.6h1.81v1.6h-1.81ZM271.33,93V85.61H273V93h-1.68Z" transform="translate(-74.46 -67.29)"/><path class="cls-1" d="M278.76,93.12a3.8,3.8,0,0,1-3.89-3.81A3.91,3.91,0,1,1,278.76,93.12Zm0-6.19a2.21,2.21,0,0,0-2.21,2.35,2.27,2.27,0,0,0,2.24,2.38A2.21,2.21,0,0,0,281,89.31,2.27,2.27,0,0,0,278.76,86.93Z" transform="translate(-74.46 -67.29)"/><path class="cls-1" d="M286.14,93h-1.68V85.61h1.68v1.14a2.64,2.64,0,0,1,2.29-1.29A2.52,2.52,0,0,1,291,88.28V93h-1.68V88.78A1.54,1.54,0,0,0,287.79,87a1.63,1.63,0,0,0-1.65,1.82V93Z" transform="translate(-74.46 -67.29)"/><path class="cls-1" d="M297.62,93V92a3,3,0,0,1-2.38,1.06,2.35,2.35,0,0,1-2.61-2.27v0c0-1.59,1.27-2.36,3-2.36a6.18,6.18,0,0,1,2,.31V88.57A1.53,1.53,0,0,0,295.83,87a5.12,5.12,0,0,0-2.1.46l-0.46-1.35a6.3,6.3,0,0,1,2.79-.61c2.17,0,3.23,1.14,3.23,3.1V93h-1.67Zm0-3.11a4.82,4.82,0,0,0-1.68-.29c-1.06,0-1.68.43-1.68,1.18v0a1.22,1.22,0,0,0,1.42,1.08,1.71,1.71,0,0,0,1.95-1.54V89.84Z" transform="translate(-74.46 -67.29)"/><path class="cls-1" d="M301.44,93V82.8h1.68V93h-1.68Z" transform="translate(-74.46 -67.29)"/><path class="cls-1" d="M222.73,97.82h1.68v9.73H223l-5.37-6.92v6.92h-1.68V97.82h1.58l5.21,6.73V97.82Z" transform="translate(-74.46 -67.29)"/><path class="cls-1" d="M230.17,106.34a2.67,2.67,0,0,0,2-.88l1,0.88a3.71,3.71,0,0,1-3,1.38,3.83,3.83,0,0,1-.18-7.66c2.34,0,3.52,1.83,3.52,4,0,0.15,0,.29,0,0.46h-5.39A2.06,2.06,0,0,0,230.17,106.34Zm1.64-3a1.91,1.91,0,0,0-1.86-1.93,2,2,0,0,0-1.9,1.93h3.77Z" transform="translate(-74.46 -67.29)"/><path class="cls-1" d="M237.25,105.25a0.8,0.8,0,0,0,.9.92,2.27,2.27,0,0,0,1-.25v1.38a3,3,0,0,1-1.52.38,1.88,1.88,0,0,1-2.11-2.15v-3.86h-0.93v-1.45h0.93v-2h1.68v2h2v1.45h-2v3.6Z" transform="translate(-74.46 -67.29)"/><path class="cls-1" d="M248.26,105.24l1.5-5h1.68l-2.4,7.4h-1.5l-1.64-5-1.65,5h-1.5l-2.38-7.4h1.72l1.47,5,1.63-5.06h1.43Z" transform="translate(-74.46 -67.29)"/><path class="cls-1" d="M256.14,107.71a3.8,3.8,0,0,1-3.89-3.81A3.91,3.91,0,1,1,256.14,107.71Zm0-6.19a2.21,2.21,0,0,0-2.21,2.35,2.27,2.27,0,0,0,2.24,2.38,2.21,2.21,0,0,0,2.22-2.35A2.27,2.27,0,0,0,256.14,101.53Z" transform="translate(-74.46 -67.29)"/><path class="cls-1" d="M263.52,107.55h-1.68v-7.34h1.68v1.65a2.6,2.6,0,0,1,2.6-1.79v1.78H266c-1.47,0-2.5,1-2.5,2.91v2.79Z" transform="translate(-74.46 -67.29)"/><path class="cls-1" d="M274.51,107.55h-1.95l-2.21-3.17-1,1.07v2.1h-1.68V97.4h1.68v6.06l3-3.25h2l-2.92,3Z" transform="translate(-74.46 -67.29)"/><path class="cls-1" d="M283.5,107.71a3.8,3.8,0,0,1-3.89-3.81A3.91,3.91,0,1,1,283.5,107.71Zm0-6.19a2.21,2.21,0,0,0-2.21,2.35,2.27,2.27,0,0,0,2.24,2.38,2.21,2.21,0,0,0,2.22-2.35A2.27,2.27,0,0,0,283.5,101.53Z" transform="translate(-74.46 -67.29)"/><path class="cls-1" d="M293.17,100.26v1.39h-1.92v5.89h-1.68v-5.89h-0.93v-1.4h0.93V99.72c0-1.61.81-2.41,2.25-2.41a4.49,4.49,0,0,1,1.36.2v1.42a3,3,0,0,0-1-.18,0.92,0.92,0,0,0-1,1.11v0.4h1.95Z" transform="translate(-74.46 -67.29)"/><path class="cls-1" d="M219.69,116.5c2.06,0.5,3.13,1.24,3.13,2.86,0,1.83-1.43,2.92-3.47,2.92a6,6,0,0,1-4.06-1.56l1-1.22a4.48,4.48,0,0,0,3.07,1.27c1.06,0,1.72-.49,1.72-1.24s-0.39-1.08-2.2-1.5c-2.07-.5-3.24-1.11-3.24-2.92s1.39-2.83,3.32-2.83a5.39,5.39,0,0,1,3.53,1.22l-0.92,1.29a4.42,4.42,0,0,0-2.64-1,1.34,1.34,0,0,0-1.59,1.17C217.38,115.72,217.82,116.06,219.69,116.5Z" transform="translate(-74.46 -67.29)"/><path class="cls-1" d="M226.65,119.85a0.8,0.8,0,0,0,.9.92,2.27,2.27,0,0,0,1-.25v1.38a3,3,0,0,1-1.52.38,1.88,1.88,0,0,1-2.11-2.15v-3.86H224v-1.45H225v-2h1.68v2h2v1.45h-2v3.6Z" transform="translate(-74.46 -67.29)"/><path class="cls-1" d="M232.06,122.15h-1.68v-7.34h1.68v1.65a2.6,2.6,0,0,1,2.6-1.79v1.78h-0.1c-1.47,0-2.5,1-2.5,2.91v2.79Z" transform="translate(-74.46 -67.29)"/><path class="cls-1" d="M239.31,120.94a2.67,2.67,0,0,0,2-.88l1,0.88a3.71,3.71,0,0,1-3,1.38,3.83,3.83,0,0,1-.18-7.66c2.34,0,3.52,1.83,3.52,4,0,0.15,0,.29,0,0.46H237.2A2.06,2.06,0,0,0,239.31,120.94Zm1.64-3a1.91,1.91,0,0,0-1.86-1.93,2,2,0,0,0-1.9,1.93H241Z" transform="translate(-74.46 -67.29)"/><path class="cls-1" d="M247.76,120.94a2.67,2.67,0,0,0,2-.88l1,0.88a3.71,3.71,0,0,1-3,1.38,3.83,3.83,0,0,1-.18-7.66c2.34,0,3.52,1.83,3.52,4,0,0.15,0,.29,0,0.46h-5.39A2.06,2.06,0,0,0,247.76,120.94Zm1.64-3a1.91,1.91,0,0,0-1.86-1.93,2,2,0,0,0-1.9,1.93h3.77Z" transform="translate(-74.46 -67.29)"/><path class="cls-1" d="M254.85,119.85a0.8,0.8,0,0,0,.9.92,2.27,2.27,0,0,0,1-.25v1.38a3,3,0,0,1-1.52.38,1.88,1.88,0,0,1-2.11-2.15v-3.86h-0.93v-1.45h0.93v-2h1.68v2h2v1.45h-2v3.6Z" transform="translate(-74.46 -67.29)"/><path class="cls-1" d="M266.64,119h-1.93v3.13H263v-9.73h3.84c2.27,0,3.7,1.28,3.7,3.27C270.53,117.88,268.78,119,266.64,119Zm0.05-5h-2v3.5h2a1.83,1.83,0,0,0,2.1-1.75C268.79,114.57,268,114,266.69,114Z" transform="translate(-74.46 -67.29)"/><path class="cls-1" d="M276.49,122.15v-0.9a3,3,0,0,1-2.38,1.06A2.35,2.35,0,0,1,271.5,120v0c0-1.59,1.27-2.36,3-2.36a6.18,6.18,0,0,1,2,.31v-0.18a1.53,1.53,0,0,0-1.81-1.57,5.12,5.12,0,0,0-2.1.46l-0.46-1.35a6.3,6.3,0,0,1,2.79-.61c2.17,0,3.23,1.14,3.23,3.1v4.35h-1.67Zm0-3.11a4.82,4.82,0,0,0-1.68-.29c-1.06,0-1.68.43-1.68,1.18v0a1.22,1.22,0,0,0,1.42,1.08,1.71,1.71,0,0,0,1.95-1.54V119Z" transform="translate(-74.46 -67.29)"/><path class="cls-1" d="M284.39,122.3A3,3,0,0,1,281.9,121v3.36h-1.68v-9.56h1.68V116a2.93,2.93,0,0,1,2.49-1.38A3.85,3.85,0,0,1,284.39,122.3ZM284,116.11a2.37,2.37,0,0,0,0,4.73A2.38,2.38,0,0,0,284,116.11Z" transform="translate(-74.46 -67.29)"/><path class="cls-1" d="M293,120.94a2.67,2.67,0,0,0,2-.88l1,0.88a3.71,3.71,0,0,1-3,1.38,3.83,3.83,0,0,1-.18-7.66c2.34,0,3.52,1.83,3.52,4,0,0.15,0,.29,0,0.46h-5.39A2.06,2.06,0,0,0,293,120.94Zm1.64-3a1.91,1.91,0,0,0-1.86-1.93,2,2,0,0,0-1.9,1.93h3.77Z" transform="translate(-74.46 -67.29)"/><path class="cls-1" d="M299.72,122.15H298v-7.34h1.68v1.65a2.6,2.6,0,0,1,2.6-1.79v1.78h-0.1c-1.47,0-2.5,1-2.5,2.91v2.79Z" transform="translate(-74.46 -67.29)"/><path class="cls-1" d="M306.35,122.28a5.15,5.15,0,0,1-3.11-1.1L304,120a4.12,4.12,0,0,0,2.41.9,0.93,0.93,0,0,0,1.14-.79v0c0-.57-0.78-0.76-1.64-1-1.08-.31-2.29-0.75-2.29-2.16v0a2.34,2.34,0,0,1,2.61-2.24,5.09,5.09,0,0,1,2.7.83l-0.67,1.2a4.26,4.26,0,0,0-2.07-.69,0.85,0.85,0,0,0-1,.74v0c0,0.53.79,0.75,1.65,1,1.07,0.33,2.28.82,2.28,2.14v0C309.07,121.52,307.88,122.28,306.35,122.28Z" transform="translate(-74.46 -67.29)"/><path class="cls-1" d="M133.1,113.17l3.1-5.19a15.92,15.92,0,0,0,8.13,2.46c0.88,0,1.33-.2,1.33-0.72v-0.08c0-.44-0.4-0.72-2.62-1.29-5.56-1.37-9-2.86-9-7.41v-0.08c0-4.83,3.87-7.53,9.58-7.53a19.49,19.49,0,0,1,9.86,2.54l-2.9,5.43a16.24,16.24,0,0,0-7-2.05c-0.89,0-1.29.24-1.29,0.69V100c0,0.44.48,0.72,2.7,1.29,5.56,1.37,8.9,2.9,8.9,7.41v0.08c0,4.79-3.58,7.57-9.54,7.57A20.1,20.1,0,0,1,133.1,113.17Z" transform="translate(-74.46 -67.29)"/><path class="cls-1" d="M105,93.85v22H95.89V98.89a5,5,0,0,1,0-.57,4.54,4.54,0,0,1,4.47-4.61h0.05Zm-4.54-2.18a4.61,4.61,0,0,0,4.76-4.44h0a4.61,4.61,0,0,0-4.76-4.44h0a4.61,4.61,0,0,0-4.76,4.44h0a4.61,4.61,0,0,0,4.76,4.44h0Z" transform="translate(-74.46 -67.29)"/><path class="cls-1" d="M171.66,93.32c-3.34,0-5,1.61-6.52,3.22v-2.7H156v31.69h4.63v0h0a4.53,4.53,0,0,0,4.46-4.44h0V121s0,0,0-.07,0,0,0-.07v-7.51a8.21,8.21,0,0,0,6.6,3c5.19,0,9.38-4.63,9.38-11.59v-0.08C181.12,98,177,93.32,171.66,93.32Zm0.6,11.55a3.67,3.67,0,1,1-7.33,0v-0.08a3.67,3.67,0,1,1,7.33,0v0.08Z" transform="translate(-74.46 -67.29)"/><path class="cls-1" d="M123.79,93.32a8.49,8.49,0,0,0-6.72,3.58V93.85h-9.14v22h9.14V104.27a2.71,2.71,0,0,1,2.62-3c1.37,0,2.5,1.09,2.5,3v8.38h0a3.17,3.17,0,0,0,3,3.15h6.12V101.33C131.31,96.38,128.41,93.32,123.79,93.32Z" transform="translate(-74.46 -67.29)"/><path class="cls-2" d="M102.4,139.23h-18a9.88,9.88,0,0,1-9.93-9.8V77.09a9.88,9.88,0,0,1,9.93-9.8h18v8.36H83.3a0.44,0.44,0,0,0-.48.34v54.54a0.44,0.44,0,0,0,.48.35H102.4v8.36Z" transform="translate(-74.46 -67.29)"/><path class="cls-2" d="M172.84,75.65h19.1a0.44,0.44,0,0,1,.48.34v54.54a0.44,0.44,0,0,1-.48.34h-19.1v8.36h18a9.88,9.88,0,0,0,9.93-9.8V77.09a9.88,9.88,0,0,0-9.93-9.8h-18v8.36Z" transform="translate(-74.46 -67.29)"/></svg>