<svg id="Layer_1" data-name="Layer 1" xmlns="http://www.w3.org/2000/svg" viewBox="0 0 354.82 409"><defs><style>.cls-1{fill:#9a9999;}.cls-2{fill:#56585a;}.cls-3{fill:#7f8080;}.cls-4{fill:#fff;}</style></defs><title>social-enterprise-mark(grey)</title><path class="cls-1" d="M91,30.74A51.45,51.45,0,0,0,39.55,82.19V345.73h315v-315H91Z"/><path class="cls-2" d="M124.44,262.65a96.28,96.28,0,0,1-2.85-103.18,107.69,107.69,0,0,1,24.9-47.92A113.31,113.31,0,0,0,91.2,208.81c0,3.14.16,6.25,0.42,9.33a113.68,113.68,0,0,0,48.83,68.18,81.42,81.42,0,0,1-7-12.29A97.17,97.17,0,0,1,124.44,262.65Z"/><path class="cls-2" d="M303,183.49a76.26,76.26,0,0,0-103.93-71.11c1.78-.1,3.57-0.16,5.37-0.16a95.88,95.88,0,0,1,45.18,11.27,66.34,66.34,0,0,0-72,32.84,88.2,88.2,0,0,1,23.52-4.88,50.61,50.61,0,0,1,84.35,46.5,87.79,87.79,0,0,1,8.31,21.84,75.78,75.78,0,0,0,6.91-17.65h0A76.18,76.18,0,0,0,303,183.49Z"/><path class="cls-2" d="M304,108.34a131.41,131.41,0,0,0-102.4-49.06C129.07,59.29,70,118.33,70,190.91c0,63.82,45.67,117.16,106,129.1A131.54,131.54,0,0,0,304,108.34Zm4.48,75.1a81.8,81.8,0,1,1-81.8-81.8A81.89,81.89,0,0,1,308.52,183.44Zm-35.15,95.14a112.3,112.3,0,0,1-70.12,25.62c-0.54,0-1.07,0-1.61,0l-1.08,0a64.54,64.54,0,0,1-56.22-50.92,108.06,108.06,0,0,1-17-27.68A81,81,0,0,0,140.15,286,113.28,113.28,0,0,1,201.64,77.58c1.34,0,2.68.06,4,.1a113,113,0,0,1,24.11,3.43c-1,0-2-.08-3-0.08a102.4,102.4,0,1,0,57.9,186.8l0.17,0A114.33,114.33,0,0,1,273.37,278.58Z"/><path class="cls-2" d="M207.4,158.51a81.15,81.15,0,0,0-56.94,23.29c0,0.56,0,1.12,0,1.68a76,76,0,0,0,3.05,21.32A64.37,64.37,0,0,1,271.8,239.95c0,1.76-.09,3.5-0.23,5.23a76.94,76.94,0,0,0,16.49-16.34A81.54,81.54,0,0,0,207.4,158.51Z"/><path class="cls-2" d="M264.28,244.59c0.14-1.73.21-3.24,0.21-4.64a57.2,57.2,0,0,0-.77-9.3,50.62,50.62,0,0,1-78.65-42.22c0-.33,0-0.67,0-1A56.88,56.88,0,0,0,169.9,197,66.33,66.33,0,0,0,264,248.53Z"/><path class="cls-3" d="M120,260a96.28,96.28,0,0,1-2.85-103.18,107.69,107.69,0,0,1,24.9-47.92,113.31,113.31,0,0,0-55.28,97.26c0,3.14.16,6.25,0.42,9.33a113.68,113.68,0,0,0,48.83,68.18,81.42,81.42,0,0,1-7-12.29A97.17,97.17,0,0,1,120,260Z"/><path class="cls-3" d="M298.65,180.82A76.26,76.26,0,0,0,194.71,109.7c1.78-.1,3.57-0.16,5.37-0.16a95.88,95.88,0,0,1,45.18,11.27,66.34,66.34,0,0,0-72,32.84,88.2,88.2,0,0,1,23.52-4.88,50.61,50.61,0,0,1,84.35,46.5,87.79,87.79,0,0,1,8.31,21.84,75.78,75.78,0,0,0,6.91-17.65h0A76.18,76.18,0,0,0,298.65,180.82Z"/><path class="cls-3" d="M203,155.84a81.15,81.15,0,0,0-56.94,23.29c0,0.56,0,1.12,0,1.68a76,76,0,0,0,3.05,21.32,64.37,64.37,0,0,1,118.33,35.13c0,1.76-.09,3.5-0.23,5.23a76.94,76.94,0,0,0,16.49-16.34A81.54,81.54,0,0,0,203,155.84Z"/><path class="cls-3" d="M259.89,241.92c0.14-1.73.21-3.24,0.21-4.64a57.2,57.2,0,0,0-.77-9.3,50.62,50.62,0,0,1-78.65-42.22c0-.33,0-0.67,0-1a56.88,56.88,0,0,0-15.19,9.55,66.33,66.33,0,0,0,94.06,51.55Z"/><path class="cls-4" d="M299.65,105.67a131.41,131.41,0,0,0-102.4-49.06c-72.58,0-131.62,59-131.62,131.62,0,63.82,45.67,117.16,106,129.1A131.54,131.54,0,0,0,299.65,105.67Zm4.48,75.1A81.8,81.8,0,1,1,222.34,99,81.89,81.89,0,0,1,304.13,180.77ZM269,275.91a112.3,112.3,0,0,1-70.12,25.62c-0.54,0-1.07,0-1.61,0l-1.08,0A64.54,64.54,0,0,1,140,250.63a108.06,108.06,0,0,1-17-27.68,81,81,0,0,0,12.85,60.41A113.28,113.28,0,0,1,197.25,74.9c1.34,0,2.68.06,4,.1a113,113,0,0,1,24.11,3.43c-1,0-2-.08-3-0.08A102.4,102.4,0,1,0,280.48,265v0A114.36,114.36,0,0,1,269,275.91Z"/><path class="cls-3" d="M46.61,366.86V386.3H43.17V366.86H39.51v-3.24H50.27v3.24H46.61Z"/><path class="cls-3" d="M60.28,386.3v-9.88H56.2v9.88H52.76V363.62H56.2v9.56h4.08v-9.56h3.43V386.3H60.28Z"/><path class="cls-3" d="M71.16,366.8v6.41h5v3.17h-5v6.74h6.22v3.17H67.73V363.62h9.65v3.17H71.16Z"/><path class="cls-3" d="M95.48,368.38V369l-3.3.32v-0.84c0-1.3-.62-2-1.75-2s-1.75.68-1.75,2v0.29c0,1.33.58,2.46,2.88,4.41,3.14,2.66,4.31,4.54,4.31,7.26v1.13c0,3.24-1.91,5.09-5.31,5.09s-5.31-1.85-5.31-5.09V380l3.3-.32v1.62q0,2.14,1.94,2.14t1.94-2.14v-0.75c0-1.43-.68-2.56-3-4.5-3.14-2.66-4.21-4.54-4.21-7.19v-0.49c0-3.24,1.85-5.09,5.12-5.09S95.48,365.14,95.48,368.38Z"/><path class="cls-3" d="M109.12,369v11.86c0,3.56-2.11,5.73-5.54,5.73S98,384.45,98,380.89V369c0-3.56,2.11-5.73,5.54-5.73S109.12,365.47,109.12,369Zm-7.64,0v11.79c0,1.68.75,2.59,2.11,2.59s2.11-.91,2.11-2.59V369.06c0-1.68-.75-2.59-2.11-2.59S101.47,367.38,101.47,369.06Z"/><path class="cls-3" d="M123.05,368.74v2l-3.3.16V369.1c0-1.81-.68-2.62-1.94-2.62s-1.94.81-1.94,2.3v12.38c0,1.49.68,2.3,1.94,2.3s1.94-.81,1.94-2.62V378.3l3.3,0.16v2.72c0,3.43-2,5.44-5.35,5.44s-5.28-2-5.28-5.44V368.74c0-3.43,1.94-5.44,5.28-5.44S123.05,365.31,123.05,368.74Z"/><path class="cls-3" d="M126.29,386.3V363.62h3.43V386.3h-3.43Z"/><path class="cls-3" d="M141.23,386.3l-0.75-5.15h-3.79l-0.75,5.15h-3.43l3.92-22.68h4.37l3.92,22.68h-3.5ZM137.15,378H140l-1.39-9.56h-0.1Z"/><path class="cls-3" d="M156.68,383.06v3.24h-9.17V363.62h3.43v19.44h5.73Z"/><path class="cls-3" d="M168.18,366.8v6.41h5v3.17h-5v6.74h6.22v3.17h-9.65V363.62h9.65v3.17h-6.22Z"/><path class="cls-3" d="M185.44,386.3l-4.5-15h-0.07v15h-3.24V363.62h3.82l4,13.51h0.06V363.62h3.24V386.3h-3.37Z"/><path class="cls-3" d="M198.4,366.86V386.3H195V366.86h-3.66v-3.24h10.75v3.24H198.4Z"/><path class="cls-3" d="M208,366.8v6.41h5v3.17h-5v6.74h6.22v3.17h-9.65V363.62h9.65v3.17H208Z"/><path class="cls-3" d="M222.15,376.71h-1.59v9.59h-3.43V363.62h5c3.69,0,5.7,2,5.7,5.73V371c0,2.4-.84,4.08-2.43,5l3.14,10.33h-3.63Zm-1.59-3.17H222c1.65,0,2.4-.87,2.4-2.79v-1.17c0-1.91-.75-2.79-2.4-2.79h-1.39v6.74Z"/><path class="cls-3" d="M236.28,363.62c3.69,0,5.7,2,5.7,5.73v1.81c0,3.72-2,5.73-5.7,5.73h-1.52v9.39h-3.43V363.62h5Zm-1.52,10.11h1.39c1.65,0,2.4-.87,2.4-2.79v-1.36c0-1.91-.75-2.79-2.4-2.79h-1.39v6.93Z"/><path class="cls-3" d="M249.53,376.71h-1.59v9.59h-3.43V363.62h5c3.69,0,5.7,2,5.7,5.73V371c0,2.4-.84,4.08-2.43,5l3.14,10.33h-3.63Zm-1.59-3.17h1.39c1.65,0,2.4-.87,2.4-2.79v-1.17c0-1.91-.75-2.79-2.4-2.79h-1.39v6.74Z"/><path class="cls-3" d="M258.7,386.3V363.62h3.43V386.3H258.7Z"/><path class="cls-3" d="M275.29,368.38V369l-3.3.32v-0.84c0-1.3-.62-2-1.75-2s-1.75.68-1.75,2v0.29c0,1.33.58,2.46,2.88,4.41,3.14,2.66,4.31,4.54,4.31,7.26v1.13c0,3.24-1.91,5.09-5.31,5.09s-5.31-1.85-5.31-5.09V380l3.3-.32v1.62q0,2.14,1.94,2.14t1.94-2.14v-0.75c0-1.43-.68-2.56-3-4.5-3.14-2.66-4.21-4.54-4.21-7.19v-0.49c0-3.24,1.85-5.09,5.12-5.09S275.29,365.14,275.29,368.38Z"/><path class="cls-3" d="M281.51,366.8v6.41h5v3.17h-5v6.74h6.22v3.17h-9.65V363.62h9.65v3.17h-6.22Z"/><path class="cls-3" d="M308.1,386.3V370.55H308l-2.85,12.5h-2l-2.85-12.5h-0.06V386.3H297V363.62h4.5l2.69,12.18h0.06l2.66-12.18h4.63V386.3H308.1Z"/><path class="cls-3" d="M323,386.3l-0.75-5.15H318.5l-0.75,5.15h-3.43l3.92-22.68h4.37l3.92,22.68H323ZM319,378h2.88l-1.39-9.56h-0.1Z"/><path class="cls-3" d="M334,376.71h-1.59v9.59H329V363.62h5c3.69,0,5.7,2,5.7,5.73V371c0,2.4-.84,4.08-2.43,5l3.14,10.33h-3.63Zm-1.59-3.17h1.39c1.65,0,2.4-.87,2.4-2.79v-1.17c0-1.91-.75-2.79-2.4-2.79h-1.39v6.74Z"/><path class="cls-3" d="M354.82,386.3h-3.66l-3.37-9.91-1.49,2.92v7h-3.43V363.62h3.43v9.46h0.07l4.76-9.46h3.6l-4.67,9Z"/><path class="cls-3" d="M81.92,395.66v13.12H79.6V395.66H77.13v-2.19h7.26v2.19H81.92Z"/><path class="cls-3" d="M89.25,402.31H88.17v6.47H85.86V393.47H89.2c2.49,0,3.85,1.36,3.85,3.87v1.09a3.57,3.57,0,0,1-1.64,3.37l2.12,7H91.08Zm-1.07-2.14h0.94c1.12,0,1.62-.59,1.62-1.88v-0.79c0-1.29-.5-1.88-1.62-1.88H88.17v4.55Z"/><path class="cls-3" d="M100.49,408.78L100,405.3H97.43l-0.5,3.48H94.61l2.65-15.31h3l2.65,15.31h-2.36Zm-2.76-5.58h1.95l-0.94-6.45H98.67Z"/><path class="cls-3" d="M108.06,393.47c2.49,0,3.85,1.36,3.85,3.87v7.57c0,2.52-1.36,3.87-3.85,3.87h-3.32V393.47h3.32Zm-1,13.17H108c1.12,0,1.62-.59,1.62-1.88v-7.26c0-1.29-.5-1.88-1.62-1.88h-0.92v11Z"/><path class="cls-3" d="M114.38,408.78V393.47h2.32v15.31h-2.32Z"/><path class="cls-3" d="M124.68,408.78l-3-10.15h0v10.15h-2.19V393.47H122l2.73,9.12h0v-9.12H127v15.31h-2.27Z"/><path class="cls-3" d="M136.69,396.93v1l-2.23.11v-0.92c0-1.22-.46-1.77-1.36-1.77a1.31,1.31,0,0,0-1.36,1.55v8.36a1.29,1.29,0,0,0,1.33,1.55c0.9,0,1.33-.55,1.33-1.77v-2.62h-1.31v-2.14h3.59v5a3.63,3.63,0,1,1-7.26,0v-8.4A3.63,3.63,0,1,1,136.69,396.93Z"/><path class="cls-3" d="M145.79,395.61v4.33h3.28v2.14h-3.28v6.69h-2.32V393.47h6.41v2.14h-4.09Z"/><path class="cls-3" d="M158.81,397.12v8a3.74,3.74,0,1,1-7.48,0v-8A3.74,3.74,0,1,1,158.81,397.12Zm-5.16,0v8c0,1.14.5,1.75,1.42,1.75s1.42-.61,1.42-1.75v-8c0-1.14-.5-1.75-1.42-1.75S153.65,396,153.65,397.15Z"/><path class="cls-3" d="M164.45,402.31h-1.07v6.47h-2.32V393.47h3.35c2.49,0,3.85,1.36,3.85,3.87v1.09a3.57,3.57,0,0,1-1.64,3.37l2.12,7h-2.45Zm-1.07-2.14h0.94c1.12,0,1.62-.59,1.62-1.88v-0.79c0-1.29-.5-1.88-1.62-1.88h-0.94v4.55Z"/><path class="cls-3" d="M178,393.47c2.49,0,3.85,1.36,3.85,3.87v1.22c0,2.52-1.36,3.87-3.85,3.87h-1v6.34h-2.32V393.47H178Zm-1,6.82h0.94c1.12,0,1.62-.59,1.62-1.88v-0.92c0-1.29-.5-1.88-1.62-1.88H177v4.68Z"/><path class="cls-3" d="M186.13,395.61v4.33h3.39v2.14h-3.39v4.55h4.2v2.14h-6.52V393.47h6.52v2.14h-4.2Z"/><path class="cls-3" d="M199.76,397.12v8a3.74,3.74,0,1,1-7.48,0v-8A3.74,3.74,0,1,1,199.76,397.12Zm-5.16,0v8c0,1.14.5,1.75,1.42,1.75s1.42-.61,1.42-1.75v-8c0-1.14-.5-1.75-1.42-1.75S194.6,396,194.6,397.15Z"/><path class="cls-3" d="M205.58,393.47c2.49,0,3.85,1.36,3.85,3.87v1.22c0,2.52-1.36,3.87-3.85,3.87h-1v6.34h-2.32V393.47h3.35Zm-1,6.82h0.94c1.12,0,1.62-.59,1.62-1.88v-0.92c0-1.29-.5-1.88-1.62-1.88h-0.94v4.68Z"/><path class="cls-3" d="M217.54,406.59v2.19h-6.19V393.47h2.32v13.12h3.87Z"/><path class="cls-3" d="M221.57,395.61v4.33H225v2.14h-3.39v4.55h4.2v2.14h-6.52V393.47h6.52v2.14h-4.2Z"/><path class="cls-3" d="M237.16,408.78l-0.5-3.48H234.1l-0.5,3.48h-2.32l2.65-15.31h3l2.65,15.31h-2.36Zm-2.76-5.58h1.95l-0.94-6.45h-0.07Z"/><path class="cls-3" d="M246.68,408.78l-3-10.15h0v10.15h-2.19V393.47H244l2.73,9.12h0v-9.12H249v15.31h-2.27Z"/><path class="cls-3" d="M255,393.47c2.49,0,3.85,1.36,3.85,3.87v7.57c0,2.52-1.36,3.87-3.85,3.87h-3.32V393.47H255Zm-1,13.17h0.92c1.11,0,1.62-.59,1.62-1.88v-7.26c0-1.29-.5-1.88-1.62-1.88H254v11Z"/><path class="cls-3" d="M269,393.47c2.49,0,3.85,1.36,3.85,3.87v1.22c0,2.52-1.36,3.87-3.85,3.87h-1v6.34h-2.32V393.47H269Zm-1,6.82h0.94c1.12,0,1.62-.59,1.62-1.88v-0.92c0-1.29-.5-1.88-1.62-1.88H268v4.68Z"/><path class="cls-3" d="M281,406.59v2.19h-6.19V393.47h2.32v13.12H281Z"/><path class="cls-3" d="M287.76,408.78l-0.5-3.48H284.7l-0.5,3.48h-2.32l2.65-15.31h3l2.65,15.31h-2.36ZM285,403.2h1.95L286,396.75h-0.07Z"/><path class="cls-3" d="M297.27,408.78l-3-10.15h0v10.15H292V393.47h2.58l2.73,9.12h0v-9.12h2.19v15.31h-2.27Z"/><path class="cls-3" d="M304.58,395.61v4.33H308v2.14h-3.39v4.55h4.2v2.14h-6.52V393.47h6.52v2.14h-4.2Z"/><path class="cls-3" d="M314.73,395.66v13.12h-2.32V395.66h-2.47v-2.19h7.26v2.19h-2.47Z"/><path class="cls-4" d="M252.14,69.86l-212,92a14.72,14.72,0,0,1-19.29-7.66L2.91,112.72a14.72,14.72,0,0,1,7.66-19.29l212-92a14.72,14.72,0,0,1,19.29,7.66l17.91,41.47A14.72,14.72,0,0,1,252.14,69.86Z"/><path class="cls-3" d="M260.46,53.76a2,2,0,0,0-.87-1.76C260.26,55.49,259.41,51,260.46,53.76Z"/><path class="cls-3" d="M257.4,67a4.52,4.52,0,0,1-.2.43A0.58,0.58,0,0,0,257.4,67Z"/><path class="cls-3" d="M242.79,5.18c-5.28-5.91-17-6.36-22.22-3.38C200.91,10.31,180.36,17,160.49,26.17c1.18-.18.23,0.71-0.75,1.26l-0.36-.12L158,28.5c-1.49.69-1.14-.26,0.1-0.88-8,3.38-15.12,6.63-23,9.76-0.18,1-4.06,1.75-4,2.7-0.43,0-.11-0.18,0-0.44-5.26,2.7-5.62,2.88-11,3.94-21.39,8.2,9.94-4.47-10.94,4-21,9-41.35,18.37-62.82,27.67-2.77,2.65-7.55,4-11,6.71l0.09-.49c-3.1,2-4.23,1.65-8.66,3,0.14,0.47-1.57.81-.66,1.29C25,87,23.13,85.78,21.16,87c-0.18-.22.24,0.42-0.31,0.37-5.08,3.19.87-.84-6.35,1.35C10.4,90.05,2.37,94.82.92,101.45c-2.54,6.6.81,13.76,2.39,17.73-0.28-.56.2-1.08,0.61-0.14-0.82,1.4,1.65,3,1.86,4.84a3.13,3.13,0,0,1-1-1.16c1.28,4.42,3.5,7.64,4.64,11.85,2.1,3.58,2.9,8.42,4.59,10.69-0.73-.4.36,1.85,0.46,2.76,2.61,1.7,2.08,8.13,6.94,11.56l-0.3.06c5.18,5.38,14.63,6.89,21.14,3.53,5.43-2.3,10.89-4.69,16.13-7.27,6-2.7,13.34-4.29,19.72-7.72,1.14-.7,0-0.61,1-1.15,1.69-.67.17,0.45,0.89,0.34,3-2,7.64-3.08,11.74-4.82,0.38-.43,1.51-1,1-1.15,5-1,10.65-4.87,15.63-6.12-2.15-.55,2.47-1.83,4-2.8,1-.33,1.17,0,1,0.31a66.13,66.13,0,0,1,9.58-3.83c1.87-1,2.11-1.84,4.51-2.63,1.8,0.25,4.86-2,7.26-2.64-0.89-.49,1.76-2.3,4.17-2.93l-0.26,1.33c7-3.71,17.86-6.9,25.79-11.76l0.88,0.34c8.44-4.38-34.12,14.56-26.2,9.86a74.57,74.57,0,0,0,8.36-2.89c2.84-1.81,4-2.21,5.69-3.92a4.4,4.4,0,0,1,2.55-.32c3.91-1.46,8-2.16,10.63-4.42l0.34,0.46c2.83-1.81,7-4.3,10.68-5.17,0.76-.86,4.14-2.49,2.32-2.43,1.31-.68,1.24.5,2.4-0.63l-1,1.3c7.82-3.06,14.18-6.19,21.49-9.73,2.54,0,7.09-3.09,11.53-4.38,2.28-1.53,6.88-2.65,8.27-4.53l0.34,0.46c3.35-1.33,7.83-3.21,12.29-4.79,2.6-.92,2.28-1.69,4.16-2.79l0.34,0.47a7.27,7.27,0,0,0,2.91-3.15c1.84-.36,1.88-0.81,3.71-1.17a12.07,12.07,0,0,0-3.47,3.28c2.78-.91,4.93-3.36,6.92-3.25,2.21-.62,4-1.91,4-2.63,0.23,0.1,1.56-.49.63,0.4a8.68,8.68,0,0,0,3.07-3.25c-0.24.29-.62,0.65-0.91,0.95,0.27-1.09,1.4-2.55.47-2.72a4.54,4.54,0,0,1-1.13,1.85c0-.79,1.6-3.15,2.29-3.68,1-.57-0.15,2.4.86,1.24a13.07,13.07,0,0,0,.39-4.55c-0.13.9-.82,1.67-1.08,1.19a6.28,6.28,0,0,1-.36,1.9l-0.51-.35c-1.22,2.92-3.2,4.12-5.76,6l1.39,0c-1.65,1-3.28,2.55-5.27,2.6,0.76-.56,0-0.6-0.12-0.91a3.75,3.75,0,0,1-1.33.84l0.45-1.34c-0.28,1.64-4.88,2.61-5.64,3.17l0.19-.29c-3,.76.72,0.33-1.16,1.14-1.67.51-1-.8-2.69-0.59-2.81,1.22-7.34,4-10.81,4.57a70.07,70.07,0,0,0-7.15,4.14c-2.25.95-.31-1.06-2.39,0.34a1,1,0,0,0-.71-0.91c-0.14.5-4.24,1.71-2.07,1.82a104.64,104.64,0,0,0-10.44,4.28c1.12-.54,1.16-1.29.07-1.19a21.17,21.17,0,0,1-7,3.85c0.32,0.62,1.26.21,1.22,1a6.31,6.31,0,0,1-1.71,1.11c-0.7-.48-1-1.55-3.6-0.48C193,91,197.21,90.58,195.6,90c0.8-1.31,5.46-3.32,6.73-3.26,1.93-1.85-1.86.66-1.79-.39-2.05.95-2.83,1.8-6,3.3,0.15,0.46,1.27.06-.07,1-2.49,2.13-3.86.86-4.6,1.12l1.32-.83c-2,.49-2.44,1.38-4.48,2.18-1.05-1,3.16-1.49,3.6-2.53l-1.81-.23c-3.15,1.19-.44,1.32-3.77,2.36l0.21-.59L183,93.32c0.15,0.46.86,0.94,2.54,0.13-0.64,1.62-1.51.83-4.13,2.19-0.6,1,1.13-.55,1.45.07,0.52,0.47-1.34,1.28-2.66,2-2.23.94-1.44-.22-2.52-0.27,0.38-.28,2.06-1.09,2-0.64,2.47-1.83-1.77-.84-0.06-2.11-2.28.51-1.88,1.25-2.9,1.93,0.69-.2,0,0.77.56,0.8-2.93,3.3-2.89-.3-6.27,1.49,1.22,0.81-4,3.55-.95,3.7a9,9,0,0,1-2.64,1.51c0.62-1.17-1.81.06-.46-1.37l-1.28.53,1.54-1.72c-1.64.07-4.22,0.54-5.12,0.5-1.71,1.11.89,0.49-1.18,1.58,0.58-.71-0.88-0.49-1.83-0.08,2-.5.48,1.07-0.64,1.77-1.88.81-3.68,0.72-3.48,0.42l1.54-1.42c-1.15,1.14-.73,0-2,0.79-0.22.59-.82,1.61-1.06,2.35-1.12.69-2.21,0.49-2.59,0.76l1.71-1.26c-2.43,1.23-1-.95-3.48.43l-0.41.88c-0.54.12-.91,0-0.52-0.47-0.22.59-1.71,1.12-2.28,1.54l-0.34-.32c-1,.71-1.94,2.15-3.57,1.92,1.43,0.52,1.31-.54,3.33-0.89,1.44,0.22-1.54,1.42-1.92,1.7-0.31-1.06-2.8,1.07-4.1,1.6-0.91,0-1.63.07-2.19,0l-0.22.88c-1-1.1,49-20.41,47.36-20.2,0.58-.72.25-1.19-0.86-0.94,1.8,0.39-1.76,2.16-1.07,2.64-2.77.77,0.09-1.49-1-1.85-1,1.3-3.13.74-3.59,2.08,2-.5,0,0.75-0.25,1.34-2.43.93,0.21-.59-1.62-0.24-0.94.56-1.94,1.86-.27,1.48-1.48.38-2.66,2-4.48,2-0.9-.34,2.81-1.51,1.72-1.56-3.35,1.33-1,2.2-4,3.7,1.46-.23.64,1.38-0.69,2.37-3.53,1.17,1.33-1-.3-1.22l-1.31.69c-2.35-.27,3.29-3.44,1.12-3.54l-1.33,1c0.2-.44.45-1.18-0.28-1.22-0.06.9-3.38,1.64-3.57,1.92,0,0.75,1.12-.69,1.09-0.1-1.5.83-1.76,2.16-4.35,2.79,1.14-1-.87-0.64-0.47-1.22-1.29.24-.06,0.89-1.89,1.26l0-.45c-6.34,2.54-14.17,5.9-18.94,9.71-1.26-.21-3.31.59-6.63,1.47,1.47-.38.33,0.62-0.42,1l-1.81-.09c-2,.35-4.12,2-5.65,3.17a1,1,0,0,1-.7-0.33c-1.83.21-1.52,1.12-2.08,1.54l-1.28-.06,0,0.59c-1.52,1-3.74,1.77-3.87.86-0.57.42-1.14,0.85-.23,0.74-1.83.21-6.3,2.09-9.13,3.6,1.47-.37,1.46-0.08,1.79.39-0.06,1-.73.11-1.7,1.12-0.16-.31-1.63-0.08-0.31-0.92-4.39.53-9.5,3.73-14.52,5.58a2,2,0,0,0-1,1c-3.48.43-6.91,3-10.42,4,0.9,0,.27,1.51-1.59,2.32-1.74,1.57-1.24-.66-3.25-0.31a11.68,11.68,0,0,1-3.21,1.79V142a9,9,0,0,1-4.11,2l0.19-.14a34.54,34.54,0,0,0-3.69,1c-0.23.89-3.19,1.64-3.61,2.52-0.17,0,0-.15-0.35-0.17l0.14,0.61-2.4.63a5.7,5.7,0,0,1,1-1.15c-2.58.62-.59,0.87-1.74,1.71-1.52,1.12-1.67.52-2.58,0.62,0.58-.58,1.3-0.39,1.68-0.67,0.77-.86-1.1.25-1.27-0.06-0.37.13-.24,0.89-1.53,1.27-1.1.39-3.55,1.62-3.5,0.87-0.78.71-1.89,1.1-2.46,1.68,0.92-.25,2.59-0.77,2.95-0.46-0.76.42-2.27,1.24-2.63,1.08l0.57-.42c-0.57.42-3,1.21-1.53,1.27l-2-.1c-0.42.73-2.09,1.4-3.4,2.08-0.33-.61.47-1.77-2.13-0.85-0.63.51-1.32,1.08-1.78,1.42-0.93.35-1.21,0.28-1.16-.16-3,.06-3.46,2.32-6.14,1,1.38-.46.4-0.75-0.56-1.38a0.58,0.58,0,0,1-.76.09c0.17,0.46.81-.08,1.5,0.62,0.11,0.59-1.2,0-1.74-.21-1.69-2.34-5.1-5.25-6.2-11-0.78.68-1.1-1.88-1.82-2.65,1.06-.12-1.22-2.44-1.16-3.89l-0.65,1.05c-0.6-2.94-3.26-3.84-2.86-6-0.37-1.66.89,0.23,1.32,0.81,0.13-2.54-3.19-5.29-2.78-7.44-0.45,0-.8.86-1.91-0.84-0.22-1.64-1-4.78-.67-4.58-0.69-1.14-1.13-1.34-1.36-2.81a2.21,2.21,0,0,1,.85,1A19.33,19.33,0,0,0,8.76,115c0.17-1.61-1.85-4.93-1.34-6.74-1.16-1.13.52-3.15-.57-3.51a0.56,0.56,0,0,0,.45-0.24c-0.15-.83-0.7-1.78-0.17-2.76l0.56,0.67C8.36,103,9.31,100.1,10,100.25c-1.07.14,0.73-.8,0.45-1.23l0.75-1c1.61-1.13-.07-0.44,2.14-1.74,1.49-.68.87,0.65,0.31,0.77a9.83,9.83,0,0,0,3.86-1.62c-0.47.2-.66,0.22-0.27-0.13a0.45,0.45,0,0,0,.4.06A14.67,14.67,0,0,1,19,94.65a0.15,0.15,0,0,0,0,0c-0.52.27-1,.52-1.37,0.68a9.13,9.13,0,0,0,1.41-.51,0.64,0.64,0,0,0,.38-0.15,3.93,3.93,0,0,1,1.2-.32l-0.12.73c0.94-.36,3.23-2.11,3-2.32a63.55,63.55,0,0,0,12-5.33c-0.41.33-.39,0.53,0,0.14,1.21-.64,2.42-1.74,2.7-1.41,1.12-.75,1.31-0.07,3.2-0.81,0.09,0.11,0-.7-0.46-0.4,3.55-.46,7-3.57,11.08-4.65a4.07,4.07,0,0,0-.8,1,56.4,56.4,0,0,0,7.79-4.73,1.33,1.33,0,0,1-.61,1c2-.86,4.31-2,5-2.94-1.49.31,0,.36-0.91,0.72-1.67.09,0.71-1.53,2.11-2l0.09,0.11c2-.87,2-1.22,4-2.08,1.36-.18-1,0.61-0.35.77,0.87,0.73,4.87-1.36,5.33-1.42,0.39-.41,1-0.85.84-1.07,1.48-.91,1,0.24,2-0.27L80.33,66c-0.09.33,1.74,0.2,0.54,1.07,3.25-1.5,4.66-3.37,6.46-4.81a54.22,54.22,0,0,0,5.17-2.48c0.73,0.27-.94.36-1,0.85l1.9-.12c-2.16,1,.64.76-0.39,1.61,1.62-1.06,5.95-2.46,8.65-3.41-2.27-.3,3.32-2,2.81-2.9,3-1.47,1.86.12,3.12-.16,3.05-1.72,6.22-2.74,9.09-4.07a0.17,0.17,0,0,1,0,.24c2.55-1.42,7-3,9.35-4.94,0,0.24.28,0.33-.35,0.77,3-.87,0-1.44,3.59-2.27l-0.57.79c1.88-1.32,4.19-1.27,6.24-3,0.19,0.22-.3.52-0.58,0.8,2.07-1.11,4.55-2,6.11-3.44,0.41,0.18.23,0.57-.53,1.14,2.29-.53,2-1.81,4-2.32,0.59-.2,1.81-0.24,1.45-0.07,0.8-.83,3.76-2.06,4.76-2.67,0.4,0.19,1.22,0,2.57-.21,10.71-4.52-29.71,12.83-19.42,7.52,2.18,0.2-2.24,1.64-.83,1.82-0.42-.78,1.7-1,4.82-2.62l0.18,0.06c1.31-.76,2.3-0.56,3.68-1.44L141,41.54c1.36-1.2,4-.42,4.35-1.82l1.46,0.07c1.16-1.58,2.6-.75,4.18-2.33l-0.15.26c2.76-.68,5-3.27,6.26-2.94,2.14-1.07,4.61-2.32,4.71-3.21,0.59,0.07.48,0.64,0.25,1,8.08-3.82,17.36-7.5,24.3-11.58,0.43,0,0,.32-0.13.57,4.23-2.77,9.76-3,12.44-6.08l0.92-1.19c1.19-.19,1.31.32,2.24,0.21,0.71-.82,4.13-1.88,4.41-2.71,0.6,0.07-.05.44,0,0.64,2.17-.75,4.18-2.77,6.27-3.39l-0.51.57c5.52-1.19,11.54-4.66,17.77-4.55,6.33,0.34,11,5,13.24,9.15,1.24,2.23-.45,1.41.06,2.41,5,8.34,7.47,19.81,12.81,27.08,3.16,6.13,6.16,7.23,6.16,7.23C254,35.4,252.07,23.07,242.79,5.18Zm-221,88-0.88.47A3.64,3.64,0,0,1,21.8,93.22Z"/><path class="cls-3" d="M113.2,133a0.76,0.76,0,0,0,.11-0.18l-1.22.58Z"/><path class="cls-3" d="M17.48,95.46l0.19-.08H17.61Z"/><path class="cls-3" d="M9.44,134.63l0-.06c-0.17-.3-0.34-0.61-0.54-0.88A3,3,0,0,0,9.44,134.63Z"/><path class="cls-3" d="M216.13,81.1c-0.78.17-1.64,0-2.41,0.7-0.55,0,.42-0.88-0.7-0.48-0.78.86,1,.95,2.88,0.44l0.13,0C215.86,81.61,215.81,81.41,216.13,81.1Z"/><path class="cls-3" d="M259.16,60.54a1.69,1.69,0,0,0-.1-0.93C259.1,59.91,259.13,60.22,259.16,60.54Z"/><path class="cls-3" d="M51.34,81.34L51,81.52C51.07,81.68,51.19,81.56,51.34,81.34Z"/><path class="cls-3" d="M217.26,80.33a5.13,5.13,0,0,0-1.14.77A1.75,1.75,0,0,0,217.26,80.33Z"/><path class="cls-3" d="M175.91,97a3.78,3.78,0,0,0,.88-0.44A4,4,0,0,0,175.91,97Z"/><path class="cls-3" d="M216,81.79l0.19,0.16C216.24,81.88,216.18,81.83,216,81.79Z"/><path class="cls-3" d="M259.81,58.35c0.41,1.61,1-.33,1.31-1C260.72,57.13,260.31,58.19,259.81,58.35Z"/><path class="cls-3" d="M217.39,81.09a1.67,1.67,0,0,0,.92-0.11,1,1,0,0,1,.59-0.72C218.36,80.23,218,80.81,217.39,81.09Z"/><path class="cls-3" d="M206.21,85.77l4-2.5C208.68,83.95,206.24,85.32,206.21,85.77Z"/><path class="cls-3" d="M194.39,88.94c0.19-.29.58-0.57,0.4-0.73C193.49,88.75,193.3,89,194.39,88.94Z"/><path class="cls-3" d="M192.19,90.47a3.81,3.81,0,0,0,1.76-.36C194,89.5,192.75,90.32,192.19,90.47Z"/><path class="cls-3" d="M192.19,90.47h-0.26A0.24,0.24,0,0,0,192.19,90.47Z"/><path class="cls-3" d="M166.82,100.16c0.71,0.18,1.85-.66,2.42-0.93C169.46,98.5,167.54,100.19,166.82,100.16Z"/><path class="cls-3" d="M157.26,104.94a2.55,2.55,0,0,1,.93-0.4l-0.53-.32C157.11,104.48,156.52,105,157.26,104.94Z"/><polygon class="cls-3" points="19.3 138.51 18.6 137.37 18.85 138.48 19.3 138.51"/><path class="cls-3" d="M58.91,78.83c-0.23,0-.1-0.71-1.22,0C59.12,78.2,57.82,79.33,58.91,78.83Z"/><polygon class="cls-3" points="105.05 56.8 105.41 56.63 104.85 55.99 105.05 56.8"/><path class="cls-3" d="M55.12,141.3L49.3,132,42,135.18l2.93,10.61-6.65,2.92L26.56,101.44,35,97.72l26.87,40.6ZM40.19,128.77l5.59-2.45L35,109l-0.19.08Z"/><path class="cls-3" d="M57.63,87.81c7.15-3.14,12.75-1,15.92,6.27l1.54,3.51c3.17,7.22,1,12.82-6.17,16l-3,1.29L74,133,67.3,136,48,92Zm5.64,20.88L66,107.5c3.2-1.41,3.9-3.73,2.28-7.44l-1.16-2.64c-1.62-3.7-3.81-4.77-7-3.36l-2.7,1.18Z"/><path class="cls-3" d="M83.8,76.33c7.15-3.14,12.76-1,15.92,6.26l1.54,3.51c3.17,7.22,1,12.82-6.17,16l-3,1.29,8,18.2-6.65,2.92L74.2,80.54ZM89.45,97.2L92.14,96c3.2-1.4,3.9-3.73,2.28-7.44l-1.16-2.64c-1.62-3.7-3.81-4.76-7-3.36l-2.7,1.18Z"/><path class="cls-3" d="M120.6,90.42l-3.08,1.35,8.15,18.58L119,113.27,99.75,69.33l9.6-4.21c7.16-3.14,12.76-1,15.92,6.26l1.38,3.14c2,4.65,1.84,8.62-.47,11.73l14.87,17.35-7,3.08Zm-5.77-4.8,2.7-1.18c3.2-1.4,3.9-3.73,2.28-7.44l-1-2.26c-1.62-3.7-3.81-4.76-7-3.36l-2.7,1.18Z"/><path class="cls-3" d="M152.55,58.67l10.08,23c3,6.9.8,12.9-5.86,15.82s-12.58.5-15.61-6.4l-10.08-23c-3-6.9-.79-12.9,5.86-15.82S149.52,51.76,152.55,58.67Zm-14.78,6.56,10,22.85c1.43,3.26,3.65,4.39,6.28,3.23s3.31-3.55,1.88-6.81l-10-22.85c-1.43-3.26-3.65-4.39-6.28-3.23S136.34,62,137.77,65.23Z"/><path class="cls-3" d="M179,86.94L152.35,46.26l6.78-3,19.66,31.34,0.13-.06L169.11,38.9,175.76,36l11.87,47.19Z"/><path class="cls-3" d="M190.52,36.85L196,49.28,205.7,45l2.7,6.15-9.73,4.27,5.73,13.06,12.05-5.29,2.7,6.15-18.71,8.21L181.16,33.62l18.71-8.21,2.7,6.15Z"/><path class="cls-3" d="M215.69,18.47c7.16-3.14,12.76-1,15.92,6.26l9.53,21.72c3.17,7.22,1,12.82-6.17,16l-9.54,4.19L206.15,22.66Zm13.69,39.05L232,56.37c3.2-1.4,3.9-3.73,2.28-7.44l-9.14-20.84c-1.62-3.7-3.81-4.76-7-3.36l-2.64,1.16Z"/></svg>