<svg id="Layer_1" data-name="Layer 1" xmlns="http://www.w3.org/2000/svg" viewBox="0 0 155.6 100"><defs><style>.cls-1{fill:#fff;}.cls-2{fill:#e20613;}</style></defs><title>tbi-logo</title><rect class="cls-1" x="3.58" y="3.38" width="147.95" height="92.67"/><path class="cls-2" d="M0,0V100H155.6V0H0ZM147.05,91.45H8.54V8.55H147.05v82.9Z"/><path class="cls-2" d="M17.34,82.9V47.32h8.55V82.9H17.34Z"/><path class="cls-2" d="M41.7,83.92c-8.92,0-13.84-4.33-13.84-11V71.15h7.8v1.07c0,3.53,2.46,5.08,5.93,5.08s4.92-1.66,4.92-4.06c0-6.3-18.06-4.54-18.06-16,0-6,4.81-10.9,13-10.9S54.74,50.9,54.74,57.1v1.76h-7.8V57.8C46.94,55,45.07,53,41.49,53c-3,0-4.81,1.55-4.81,3.9,0,6,18.16,4.33,18.16,15.71C54.84,78.84,50.3,83.92,41.7,83.92Z"/><path class="cls-2" d="M69.86,83.92c-8.92,0-13.84-4.33-13.84-11V71.15h7.8v1.07c0,3.53,2.46,5.08,5.93,5.08s4.92-1.66,4.92-4.06c0-6.3-18.06-4.54-18.06-16,0-6,4.81-10.9,13-10.9S82.89,50.9,82.89,57.1v1.76h-7.8V57.8C75.09,55,73.22,53,69.64,53c-3,0-4.81,1.55-4.81,3.9,0,6,18.16,4.33,18.16,15.71C83,78.84,78.46,83.92,69.86,83.92Z"/><path class="cls-2" d="M99,83.92C90.32,83.92,85,79,85,72.27V47.32h8.65V72c0,3.15,1.87,5.08,5.5,5.08s5.45-1.92,5.45-5.08V47.32h8.17V72.27C112.81,79,107.78,83.92,99,83.92Z"/><path class="cls-2" d="M114.52,82.9V47.32h24v6.89H123.06v7.46h10.79v6.89H123.06V76H138.5V82.9h-24Z"/><path class="cls-2" d="M102.11,30.6l-0.26-.11,0.26-.11a5.14,5.14,0,0,0,3-5.07V23.84c0-4.2-3-6.7-8-6.7H85v27.2H97.36c5,0,8-2.51,8-6.7v-2A5.06,5.06,0,0,0,102.11,30.6Zm-10-7.67h4.08c1.46,0,2.25.27,2.25,1.67v1.75c0,1.5-.87,1.5-2.44,1.5h-3.9V22.93Zm6.41,14c0,0.84-.27,1.62-2.25,1.62H92.08V33.62h4.11c1.44,0,2.3,0,2.3,1.49v1.83Z"/><polygon class="cls-2" points="23.48 44.33 30.49 44.33 30.49 23.01 36.61 23.01 36.61 17.13 17.37 17.13 17.37 23.01 23.48 23.01 23.48 44.33 23.48 44.33"/><polygon class="cls-2" points="53.22 44.33 59.85 44.33 59.85 17.13 52.84 17.13 52.84 27.84 45.34 27.84 45.34 17.13 38.32 17.13 38.32 44.33 45.34 44.33 45.34 33.62 53.22 33.63 53.22 44.33 53.22 44.33"/><polygon class="cls-2" points="61.63 44.33 80.13 44.33 80.13 38.57 68.64 38.57 68.65 33.62 76.67 33.62 76.67 27.84 68.65 27.84 68.65 22.93 80.13 22.93 80.13 17.13 61.63 17.13 61.63 44.33 61.63 44.33"/><polygon class="cls-2" points="107.44 44.33 114.45 44.33 114.45 17.13 107.44 17.13 107.44 44.33 107.44 44.33"/><path class="cls-2" d="M127.52,16.41c-6.59,0-11,4-11,10v8.69c0,6,4.43,10,11,10s11-4,11-10V27.84H127.63v5.79h3.78v1.76a3.88,3.88,0,1,1-7.76,0V26.11a3.59,3.59,0,0,1,3.88-3.93,3.51,3.51,0,0,1,3.82,3.16h7.11c-0.49-5.42-4.77-8.92-10.92-8.92h0Z"/></svg>