<svg id="Layer_1" data-name="Layer 1" xmlns="http://www.w3.org/2000/svg" viewBox="0 0 794 524.3"><defs><style>.cls-1{fill:#7f7f7f;}.cls-2{fill:#999;stroke:#999;}</style></defs><title>tbif-logo(grey)</title><path d="M1412.45,324.4" transform="translate(-907.55)"/><rect class="cls-1" x="270.5" y="88.5" width="35.3" height="137.1"/><rect class="cls-1" x="314.6" y="88.5" width="35.3" height="137.1"/><rect class="cls-1" x="229.9" y="142.7" width="42.6" height="28.7"/><rect class="cls-1" x="348.3" y="142.7" width="42.6" height="28.7"/><rect x="88.6" y="88.1" width="98" height="29.6"/><rect class="cls-1" x="314.6" y="88.1" width="95" height="29.6"/><rect class="cls-1" x="314.6" y="196.3" width="95" height="29.6"/><path class="cls-1" d="M1406.75,152.1" transform="translate(-907.55)"/><path class="cls-1" d="M1406.75,160.8" transform="translate(-907.55)"/><path class="cls-1" d="M1132.95,358.5c7.1,3.5,11.7,9.5,11.7,16.5,0,10.8-8,19.6-28.6,19.6-14.1,0-26.1-11.5-26.1-22.3,0-3.3.4-4,.5-8.8l-40.2-.1v0.2c-0.2,5.5.1,11.1,0.1,14.8,0,28.1,29.8,50.9,66.5,50.9s69.5-22.8,69.5-50.9c0-22.9-.8-41.6-40.1-55.5h-0.6c-28.2-9.8-39-15.3-39-15.3-7.1-3.5-11.7-9.6-11.7-16.5,0-10.8,11.5-19.6,25.6-19.6s25.6,8.8,25.6,19.6c0,3.3.2,4.9,0.1,9.6l40.2,0.1v-0.2c0.2-5.5-.1-9.2-0.1-12.9,0-28.1-29.8-50.9-66.5-50.9s-66.5,22.8-66.5,50.9c0,22.9,6.3,41.8,40,53.5,0,0,31,11.9,39.6,17.3h0Z" transform="translate(-907.55)"/><path class="cls-1" d="M1276.75,358.5c7.1,3.5,11.7,9.5,11.7,16.5,0,10.8-8,19.6-28.6,19.6-14.1,0-26.1-11.5-26.1-22.3,0-3.3.4-4,.5-8.8l-40.2-.1v0.2c-0.2,5.5.1,11.1,0.1,14.8,0,28.1,29.8,50.9,66.5,50.9s69.5-22.8,69.5-50.9c0-22.9-.8-41.6-40.1-55.5h-0.6c-28.2-9.8-39-15.3-39-15.3-7.1-3.5-11.7-9.6-11.7-16.5,0-10.8,11.4-19.6,25.6-19.6s25.6,8.8,25.6,19.6c0,3.3.2,4.9,0.1,9.6l40.2,0.1v-0.2c0.2-5.5-.1-9.2-0.1-12.9,0-28.1-29.8-50.9-66.5-50.9s-66.5,22.8-66.5,50.9c0,22.9,6.3,41.8,40,53.5,0,0,31,11.9,39.6,17.3h0Z" transform="translate(-907.55)"/><path class="cls-1" d="M1538.25,130.6c0-9.1,7.4-16.6,19.3-16.6,11.1,0,19.3,6.5,20.4,14.7l0.3,1.8h34.8c0-.1-0.1.2-0.1-2.9,0-23.7-25.1-42.9-56-42.9s-56,19.2-56,42.9V185h0c-0.1,4.6.1-.2,0.1,2.9,0,23.7,25.3,42.9,56.2,42.9s56-19.2,56-42.9l-0.2-45.2h-55.2v28.7h20v13.5c0,9.1-9.3,16.6-21.2,16.6s-18.6-7.4-18.6-16.5Z" transform="translate(-907.55)"/><rect class="cls-1" x="88.6" y="242.5" width="43.6" height="181.3"/><polygon class="cls-1" points="583.6 423.8 706.6 423.8 706.4 387.9 627.2 387.9 627.2 349.9 682.3 350.1 682.3 315.9 627.2 316 627.2 277 705.9 277 706.2 242.5 583.6 242.5 583.6 423.8"/><path class="cls-1" d="M1340.55,377c0,29,31.8,52.4,70.9,52.4s70.9-23.5,70.9-52.4V242.5h-43.5V373.9c0,11.2-12.2,20.2-27.3,20.2s-27.3-9.1-27.3-20.2l-0.1-1.8V242.5h-43.6V377Z" transform="translate(-907.55)"/><rect class="cls-1" x="433.5" y="88.5" width="35.3" height="137.2"/><rect class="cls-1" x="548" y="88.5" width="35.3" height="137.1"/><path class="cls-1" d="M1376.45,88.5v28.7h-6l0.6-28.7h35.7s37-1.3,37,32.9V128c0,16.2-8.3,24.4-17,28.6h0c8.7,4.2,17,12.4,17,28.6v7.7c0,34.2-37,32.9-37,32.9h-34.6V197.4h31.6c2.5,0,5.6-2.1,5.6-4.6V176.4c0-2.5-3.1-4.6-5.6-4.6h-32.8V143h32.9c2.5,0,5.6-2.1,5.6-4.6V122c0-2.5-3.1-4.6-5.6-4.6h-27.3v25.4l-0.3,1" transform="translate(-907.55)"/><polygon class="cls-1" points="187.1 118.3 155.8 118.4 155.8 225.6 120.5 225.6 120.5 118.3 88.9 118.3 88.9 88.5 187.1 88.5 187.1 118.3"/><rect class="cls-1" x="196.1" y="88.5" width="35.3" height="137.1"/><polygon class="cls-2" points="260.7 469.4 43 469.4 43 44 306.4 44 304.3 0.5 0.5 0.5 0.5 510.9 260.7 510.9 260.7 469.4"/><polygon class="cls-2" points="254.7 0.5 255.7 44 749 44 749 469.4 715.6 469.4 715.6 510.9 793.5 510.9 793.5 0.5 254.7 0.5"/><path class="cls-1" d="M1192.75,468.9v15.5h15.7v11.2h-15.7v26.9h-14v-65h35.5v11.4h-21.5Z" transform="translate(-907.55)"/><path class="cls-1" d="M1258.85,512.4a19.33,19.33,0,0,1-4.2,6.3,18.89,18.89,0,0,1-6.7,4.1,25,25,0,0,1-9,1.5,25.75,25.75,0,0,1-9-1.5,18,18,0,0,1-6.7-4.1,19.33,19.33,0,0,1-4.2-6.3,20.88,20.88,0,0,1-1.5-8.1V475.8a21.09,21.09,0,0,1,1.5-8,19.33,19.33,0,0,1,4.2-6.3,18.89,18.89,0,0,1,6.7-4.1,25.75,25.75,0,0,1,9-1.5,25,25,0,0,1,9,1.5,18.89,18.89,0,0,1,6.7,4.1,19.33,19.33,0,0,1,4.2,6.3,20.73,20.73,0,0,1,1.5,8v28.5A20.88,20.88,0,0,1,1258.85,512.4Zm-12.5-37.3a7.19,7.19,0,0,0-1.9-5.3,7.32,7.32,0,0,0-5.4-2,6.93,6.93,0,0,0-5.3,2,7.19,7.19,0,0,0-1.9,5.3v30a7.19,7.19,0,0,0,1.9,5.3,7.09,7.09,0,0,0,5.3,2,7.32,7.32,0,0,0,5.4-2,7.19,7.19,0,0,0,1.9-5.3v-30Z" transform="translate(-907.55)"/><path class="cls-1" d="M1307.65,513.4a17.21,17.21,0,0,1-4.3,5.8,21.5,21.5,0,0,1-6.6,3.8,25.28,25.28,0,0,1-8.5,1.3,25.69,25.69,0,0,1-8.5-1.3,19.18,19.18,0,0,1-6.7-3.8,15.71,15.71,0,0,1-4.4-5.8,16.39,16.39,0,0,1-1.6-7.4V457.6h14.2v48.2c0,4.6,2.4,6.8,7.1,6.8a7.66,7.66,0,0,0,5.4-1.8,6.57,6.57,0,0,0,1.9-5.1V457.5h13.6v48.4A19.66,19.66,0,0,1,1307.65,513.4Z" transform="translate(-907.55)"/><path class="cls-1" d="M1349.25,522.6l-14.3-26.1-5.6-10.6v36.7h-12.8v-65h11.6l14,26.6,5.3,10.6V457.5H1360v65l-10.8.1h0Z" transform="translate(-907.55)"/><path class="cls-1" d="M1408.55,511.4a16.23,16.23,0,0,1-4,6,19.1,19.1,0,0,1-6.5,3.9,26.81,26.81,0,0,1-8.9,1.4h-21.6v-65h21.7a24,24,0,0,1,8.9,1.5,19.5,19.5,0,0,1,6.5,4.1,17,17,0,0,1,4,6.2,21.47,21.47,0,0,1,1.3,7.7v26.7A22.72,22.72,0,0,1,1408.55,511.4Zm-12.6-34a8.92,8.92,0,0,0-1.9-6.1q-1.8-2.1-6-2.1h-6.6V511h6.6q4.05,0,6-2.1a9.08,9.08,0,0,0,1.9-6.1V477.4Z" transform="translate(-907.55)"/><path class="cls-1" d="M1443.25,522.6l-2.7-12.9H1427l-2.7,12.9h-13.1l15.2-65H1442l15.1,65h-13.9Zm-9.2-46.9-5,23.7h9.6Z" transform="translate(-907.55)"/><path class="cls-1" d="M1479.65,469.4v53.2h-14V469.4h-14.1V457.6h42v11.8h-13.9Z" transform="translate(-907.55)"/><path class="cls-1" d="M1499.45,522.6v-65h14v65h-14Z" transform="translate(-907.55)"/><path class="cls-1" d="M1561.55,512.4a19.33,19.33,0,0,1-4.2,6.3,18.89,18.89,0,0,1-6.7,4.1,25,25,0,0,1-9,1.5,25.75,25.75,0,0,1-9-1.5,18,18,0,0,1-6.7-4.1,19.33,19.33,0,0,1-4.2-6.3,20.88,20.88,0,0,1-1.5-8.1V475.8a21.09,21.09,0,0,1,1.5-8,19.33,19.33,0,0,1,4.2-6.3,18.89,18.89,0,0,1,6.7-4.1,25.75,25.75,0,0,1,9-1.5,25,25,0,0,1,9,1.5,18.89,18.89,0,0,1,6.7,4.1,19.33,19.33,0,0,1,4.2,6.3,20.73,20.73,0,0,1,1.5,8v28.5A20.88,20.88,0,0,1,1561.55,512.4Zm-12.6-37.3a7.19,7.19,0,0,0-1.9-5.3,7.32,7.32,0,0,0-5.4-2,6.93,6.93,0,0,0-5.3,2,7.19,7.19,0,0,0-1.9,5.3v30a7.19,7.19,0,0,0,1.9,5.3,7.09,7.09,0,0,0,5.3,2,7.32,7.32,0,0,0,5.4-2,7.19,7.19,0,0,0,1.9-5.3v-30Z" transform="translate(-907.55)"/><path class="cls-1" d="M1602.45,522.6l-14.3-26.1-5.6-10.6v36.7h-12.8v-65h11.6l14,26.6,5.2,10.7V457.6h12.6v65h-10.7Z" transform="translate(-907.55)"/></svg>