<?xml version="1.0" encoding="utf-8"?>
<!-- Generator: Adobe Illustrator 19.2.0, SVG Export Plug-In . SVG Version: 6.00 Build 0)  -->
<svg version="1.1" id="Layer_1" xmlns="http://www.w3.org/2000/svg" xmlns:xlink="http://www.w3.org/1999/xlink" x="0px" y="0px"
	 viewBox="0 0 794 524.3" style="enable-background:new 0 0 794 524.3;" xml:space="preserve">
<style type="text/css">
	.st0{fill:#FFFFFF;stroke:#EE3124;}
	.st1{fill:#ED1C24;stroke:#EE3124;}
	.st2{fill:#FFFFFF;}
	.st3{fill:#EE3124;}
</style>
<rect x="25" y="23.9" class="st0" width="749" height="463.6"/>
<path d="M504.9,324.4"/>
<rect x="270.5" y="88.5" width="35.3" height="137.1"/>
<rect x="314.6" y="88.5" width="35.3" height="137.1"/>
<rect x="229.9" y="142.7" width="42.6" height="28.7"/>
<rect x="348.3" y="142.7" width="42.6" height="28.7"/>
<rect x="88.6" y="88.1" width="98" height="29.6"/>
<rect x="314.6" y="88.1" width="95" height="29.6"/>
<rect x="314.6" y="196.3" width="95" height="29.6"/>
<path d="M499.2,152.1"/>
<path d="M499.2,160.8"/>
<path d="M225.4,358.5c7.1,3.5,11.7,9.5,11.7,16.5c0,10.8-8,19.6-28.6,19.6c-14.1,0-26.1-11.5-26.1-22.3c0-3.3,0.4-4,0.5-8.8
	l-40.2-0.1c0,0.1,0,0.2,0,0.2c-0.2,5.5,0.1,11.1,0.1,14.8c0,28.1,29.8,50.9,66.5,50.9s69.5-22.8,69.5-50.9
	c0-22.9-0.8-41.6-40.1-55.5h-0.6c-28.2-9.8-39-15.3-39-15.3c-7.1-3.5-11.7-9.6-11.7-16.5c0-10.8,11.5-19.6,25.6-19.6
	s25.6,8.8,25.6,19.6c0,3.3,0.2,4.9,0.1,9.6l40.2,0.1c0-0.1,0-0.2,0-0.2c0.2-5.5-0.1-9.2-0.1-12.9c0-28.1-29.8-50.9-66.5-50.9
	s-66.5,22.8-66.5,50.9c0,22.9,6.3,41.8,40,53.5C185.8,341.2,216.8,353.1,225.4,358.5L225.4,358.5z"/>
<path d="M369.2,358.5c7.1,3.5,11.7,9.5,11.7,16.5c0,10.8-8,19.6-28.6,19.6c-14.1,0-26.1-11.5-26.1-22.3c0-3.3,0.4-4,0.5-8.8
	l-40.2-0.1c0,0.1,0,0.2,0,0.2c-0.2,5.5,0.1,11.1,0.1,14.8c0,28.1,29.8,50.9,66.5,50.9s69.5-22.8,69.5-50.9
	c0-22.9-0.8-41.6-40.1-55.5h-0.6c-28.2-9.8-39-15.3-39-15.3c-7.1-3.5-11.7-9.6-11.7-16.5c0-10.8,11.4-19.6,25.6-19.6
	c14.1,0,25.6,8.8,25.6,19.6c0,3.3,0.2,4.9,0.1,9.6l40.2,0.1c0-0.1,0-0.2,0-0.2c0.2-5.5-0.1-9.2-0.1-12.9c0-28.1-29.8-50.9-66.5-50.9
	s-66.5,22.8-66.5,50.9c0,22.9,6.3,41.8,40,53.5C329.6,341.2,360.6,353.1,369.2,358.5L369.2,358.5z"/>
<path d="M630.7,130.6c0-9.1,7.4-16.6,19.3-16.6c11.1,0,19.3,6.5,20.4,14.7l0.3,1.8h0.9h33.9c0-0.1-0.1,0.2-0.1-2.9
	c0-23.7-25.1-42.9-56-42.9s-56,19.2-56,42.9V185c0,0.1,0-0.1,0,0c-0.1,4.6,0.1-0.2,0.1,2.9c0,23.7,25.3,42.9,56.2,42.9
	s56-19.2,56-42.9l-0.2-45.2h-55.2v28.7h20v13.5c0,9.1-9.3,16.6-21.2,16.6s-18.6-7.4-18.6-16.5L630.7,130.6z"/>
<rect x="88.6" y="242.5" width="43.6" height="181.3"/>
<polygon points="583.6,423.8 706.6,423.8 706.4,387.9 627.2,387.9 627.2,349.9 682.3,350.1 682.3,315.9 627.2,316 627.2,277 
	705.9,277 706.2,242.5 583.6,242.5 "/>
<path d="M433,377c0,29,31.8,52.4,70.9,52.4c39.2,0,70.9-23.5,70.9-52.4v-0.7V242.5h-43.5v129.6v1.8c0,11.2-12.2,20.2-27.3,20.2
	s-27.3-9.1-27.3-20.2l-0.1-1.8V242.5H433v134.1V377z"/>
<rect x="433.5" y="88.5" width="35.3" height="137.2"/>
<rect x="548" y="88.5" width="35.3" height="137.1"/>
<path d="M468.9,88.5v28.7h-6l0.6-28.7h35.7c0,0,37-1.3,37,32.9v6.6c0,16.2-8.3,24.4-17,28.6l0,0c8.7,4.2,17,12.4,17,28.6v7.7
	c0,34.2-37,32.9-37,32.9h-34.6v-28.4h4.2h27.4c2.5,0,5.6-2.1,5.6-4.6v-16.4c0-2.5-3.1-4.6-5.6-4.6h-27.4h-5.4v-0.4V143h32.9
	c2.5,0,5.6-2.1,5.6-4.6V122c0-2.5-3.1-4.6-5.6-4.6H469v25.4l-0.3,1"/>
<polyline class="st1" points="714.6,510.9 0.5,510.9 0.5,0.5 304.3,0.5 306.4,44 43,44 43,469.4 714.6,469.4 "/>
<polyline class="st1" points="706.4,469.4 749,469.4 749,44 255.7,44 254.7,0.5 793.5,0.5 793.5,510.9 706.4,510.9 "/>
<polygon points="187.1,118.3 155.8,118.4 155.8,225.6 120.5,225.6 120.5,118.3 88.9,118.3 88.9,88.5 187.1,88.5 "/>
<rect x="196.1" y="88.5" width="35.3" height="137.1"/>
<rect x="260.7" y="445.6" class="st2" width="454.9" height="78.7"/>
<g>
	<path class="st3" d="M285.2,468.9v15.5h15.7v11.2h-15.7v26.9h-14v-65h35.5v11.4H285.2z"/>
	<path class="st3" d="M351.3,512.4c-1,2.4-2.4,4.5-4.2,6.3c-1.8,1.8-4.1,3.1-6.7,4.1s-5.6,1.5-9,1.5c-3.3,0-6.3-0.5-9-1.5
		s-4.9-2.3-6.7-4.1c-1.8-1.8-3.2-3.9-4.2-6.3c-1-2.4-1.5-5.1-1.5-8.1v-28.5c0-2.9,0.5-5.5,1.5-8c1-2.4,2.4-4.5,4.2-6.3
		c1.8-1.8,4.1-3.1,6.7-4.1c2.7-1,5.7-1.5,9-1.5c3.4,0,6.4,0.5,9,1.5s4.9,2.3,6.7,4.1c1.8,1.8,3.2,3.9,4.2,6.3s1.5,5.1,1.5,8v28.5
		C352.8,507.3,352.3,510,351.3,512.4z M338.8,475.1c0-2.2-0.6-4-1.9-5.3s-3.1-2-5.4-2s-4.1,0.7-5.3,2c-1.3,1.3-1.9,3.1-1.9,5.3v30
		c0,2.2,0.6,4,1.9,5.3s3,2,5.3,2s4.1-0.7,5.4-2s1.9-3.1,1.9-5.3V475.1z"/>
	<path class="st3" d="M400.1,513.4c-1,2.2-2.4,4.1-4.3,5.8c-1.9,1.6-4.1,2.9-6.6,3.8c-2.5,0.9-5.4,1.3-8.5,1.3s-5.9-0.4-8.5-1.3
		c-2.6-0.9-4.8-2.1-6.7-3.8c-1.9-1.6-3.4-3.5-4.4-5.8c-1.1-2.2-1.6-4.7-1.6-7.4v-48.4h14.2v48.2c0,4.6,2.4,6.8,7.1,6.8
		c2.3,0,4.1-0.6,5.4-1.8s1.9-2.9,1.9-5.1v-48.2h13.6v48.4C401.6,508.7,401.1,511.2,400.1,513.4z"/>
	<path class="st3" d="M441.7,522.6l-14.3-26.1l-5.6-10.6v36.7H409v-65h11.6l14,26.6l5.3,10.6v-37.3h12.6v65L441.7,522.6L441.7,522.6
		z"/>
	<path class="st3" d="M501,511.4c-0.9,2.3-2.2,4.3-4,6s-3.9,2.9-6.5,3.9c-2.6,0.9-5.5,1.4-8.9,1.4H460v-65h21.7
		c3.4,0,6.4,0.5,8.9,1.5c2.6,1,4.7,2.4,6.5,4.1c1.8,1.8,3.1,3.8,4,6.2c0.9,2.4,1.3,4.9,1.3,7.7v26.7
		C502.3,506.6,501.9,509.1,501,511.4z M488.4,477.4c0-2.6-0.6-4.6-1.9-6.1c-1.2-1.4-3.2-2.1-6-2.1h-6.6V511h6.6c2.7,0,4.7-0.7,6-2.1
		c1.2-1.4,1.9-3.4,1.9-6.1V477.4z"/>
	<path class="st3" d="M535.7,522.6l-2.7-12.9h-13.5l-2.7,12.9h-13.1l15.2-65h15.6l15.1,65H535.7z M526.5,475.7l-5,23.7h9.6
		L526.5,475.7z"/>
	<path class="st3" d="M572.1,469.4v53.2h-14v-53.2H544v-11.8h42v11.8H572.1z"/>
	<path class="st3" d="M591.9,522.6v-65h14v65H591.9z"/>
	<path class="st3" d="M654,512.4c-1,2.4-2.4,4.5-4.2,6.3s-4.1,3.1-6.7,4.1c-2.6,1-5.6,1.5-9,1.5c-3.3,0-6.3-0.5-9-1.5
		s-4.9-2.3-6.7-4.1s-3.2-3.9-4.2-6.3c-1-2.4-1.5-5.1-1.5-8.1v-28.5c0-2.9,0.5-5.5,1.5-8c1-2.4,2.4-4.5,4.2-6.3s4.1-3.1,6.7-4.1
		c2.7-1,5.7-1.5,9-1.5c3.4,0,6.4,0.5,9,1.5s4.9,2.3,6.7,4.1c1.8,1.8,3.2,3.9,4.2,6.3s1.5,5.1,1.5,8v28.5
		C655.5,507.3,655,510,654,512.4z M641.4,475.1c0-2.2-0.6-4-1.9-5.3c-1.3-1.3-3.1-2-5.4-2c-2.3,0-4.1,0.7-5.3,2
		c-1.3,1.3-1.9,3.1-1.9,5.3v30c0,2.2,0.6,4,1.9,5.3c1.3,1.3,3,2,5.3,2s4.1-0.7,5.4-2c1.3-1.3,1.9-3.1,1.9-5.3V475.1z"/>
	<path class="st3" d="M694.9,522.6l-14.3-26.1l-5.6-10.6v36.7h-12.8v-65h11.6l14,26.6l5.2,10.7v-37.3h12.6v65H694.9z"/>
</g>
</svg>
