<svg id="Layer_1" data-name="Layer 1" xmlns="http://www.w3.org/2000/svg" viewBox="0 0 260.83 176.98"><defs><style>.cls-1{fill:#fff;}.cls-2{fill:#e30613;}.cls-3{fill:#e30917;}</style></defs><title>tbis-logo</title><rect class="cls-1" x="6" y="5.67" width="248" height="155.33"/><rect class="cls-1" x="142.53" y="153.8" width="89.64" height="23.18"/><path class="cls-2" d="M230,174.19m-89.64,0,91.81-6.56h28.66V0H0V167.63H142.53V153.3H14.31v-139H246.5v139H232.17v14.33Z"/><path class="cls-2" d="M29.07,139V79.33H43.4V139H29.07Z"/><path class="cls-2" d="M69.9,140.67c-15,0-23.19-7.25-23.19-18.45v-3H59.78v1.79c0,5.91,4.12,8.51,9.94,8.51S78,126.79,78,122.76C78,112.2,47.69,115.15,47.69,96c0-10,8.06-18.27,21.85-18.27s22.21,7.61,22.21,18v3H78.68V96.88c0-4.66-3.13-8.06-9.13-8.06-5.1,0-8.06,2.6-8.06,6.54,0,10.12,30.45,7.25,30.45,26.33C91.93,132.17,84.32,140.67,69.9,140.67Z"/><path class="cls-2" d="M117.1,140.67c-15,0-23.19-7.25-23.19-18.45v-3H107v1.79c0,5.91,4.12,8.51,9.94,8.51s8.24-2.78,8.24-6.81c0-10.57-30.27-7.61-30.27-26.78,0-10,8.06-18.27,21.85-18.27s22.21,7.61,22.21,18v3H125.87V96.88c0-4.66-3.13-8.06-9.13-8.06-5.1,0-8.06,2.6-8.06,6.54,0,10.12,30.45,7.25,30.45,26.33C139.13,132.17,131.52,140.67,117.1,140.67Z"/><path class="cls-2" d="M165.9,140.67c-14.51,0-23.37-8.24-23.37-19.52V79.33H157v41.28c0,5.28,3.13,8.51,9.22,8.51s9.13-3.22,9.13-8.51V79.33h13.7v41.82C189.1,132.34,180.68,140.67,165.9,140.67Z"/><path class="cls-2" d="M192,139V79.33h40.21V90.88H206.29v12.51l18.09,0v11.55H206.29v12.5h25.88V139H192Z"/><path class="cls-2" d="M171.17,51.3l-0.44-.18,0.44-.19c3.29-1.43,5.1-4.45,5.1-8.5V40c0-7-5-11.24-13.34-11.24h-20.4V74.31H163.2c8.44,0,13.47-4.2,13.47-11.24V59.73A8.48,8.48,0,0,0,171.17,51.3ZM154.36,38.43h6.84c2.45,0,3.78.45,3.78,2.79v2.94c0,2.51-1.45,2.51-4.08,2.51h-6.53V38.43Zm10.75,23.5c0,1.41-.46,2.72-3.78,2.72h-7v-8.3h6.89c2.41,0,3.86,0,3.86,2.51v3.07Z"/><polygon class="cls-2" points="39.35 74.31 51.12 74.31 51.12 38.57 61.37 38.57 61.37 28.72 29.11 28.72 29.11 38.57 39.35 38.57 39.35 74.31 39.35 74.31"/><polygon class="cls-2" points="89.22 74.31 100.33 74.31 100.33 28.72 88.57 28.72 88.57 46.67 76 46.67 76 28.72 64.24 28.72 64.24 74.31 76 74.31 76 56.35 89.22 56.37 89.22 74.31 89.22 74.31"/><polygon class="cls-2" points="103.31 74.31 134.32 74.31 134.32 64.65 115.07 64.65 115.08 56.35 128.53 56.35 128.53 46.67 115.07 46.67 115.07 38.44 134.32 38.44 134.32 28.72 103.31 28.72 103.31 74.31 103.31 74.31"/><polygon class="cls-2" points="180.09 74.31 191.86 74.31 191.86 28.72 180.09 28.72 180.09 74.31 180.09 74.31"/><path class="cls-2" d="M213.77,27.52c-11,0-18.47,6.72-18.47,16.72V58.79c0,10,7.42,16.78,18.47,16.78s18.4-6.74,18.4-16.78V46.67H213.94v9.7h6.34v3c0,4-2.49,6.53-6.51,6.53s-6.51-2.44-6.51-6.53V43.76c0-4.13,2.43-6.59,6.51-6.59,3.6,0,5.92,1.93,6.4,5.3h11.91c-0.83-9.09-8-15-18.31-15h0Z"/><path class="cls-3" d="M161,167.7q0,4.5-2.27,6.89a8.61,8.61,0,0,1-6.55,2.39,14.41,14.41,0,0,1-7.13-1.65v-5.9a12.35,12.35,0,0,0,6.61,2.35,3.33,3.33,0,0,0,2.58-.94,3.65,3.65,0,0,0,.87-2.57,4.67,4.67,0,0,0-1-2.93,15.35,15.35,0,0,0-3.4-3,15.18,15.18,0,0,1-3.13-2.73,9.84,9.84,0,0,1-1.65-2.93,11.19,11.19,0,0,1-.58-3.78,9.1,9.1,0,0,1,2.29-6.54,8.09,8.09,0,0,1,6.16-2.41,13.48,13.48,0,0,1,7.09,2.06l-2,4.78a18.77,18.77,0,0,0-2.21-1.1,6.33,6.33,0,0,0-2.47-.48,2.71,2.71,0,0,0-2.23,1,4,4,0,0,0-.78,2.6,4.5,4.5,0,0,0,.93,2.83,13.83,13.83,0,0,0,3.26,2.74,13.55,13.55,0,0,1,4.38,4.3A10,10,0,0,1,161,167.7Z"/><path class="cls-3" d="M183.54,176.54h-6V162.47h-7.88v14.07h-6V144.45h6v12.75h7.88V144.45h6v32.09Z"/><path class="cls-3" d="M209.34,160.45q0,8-3,12.25a10.69,10.69,0,0,1-17.1,0q-3-4.27-3-12.3t3-12.21a9.87,9.87,0,0,1,8.6-4.25,9.73,9.73,0,0,1,8.52,4.27Q209.34,152.49,209.34,160.45Zm-17,0q0,5.49,1.38,8.36a4.37,4.37,0,0,0,4.06,2.88q5.4,0,5.4-11.24t-5.36-11.24a4.4,4.4,0,0,0-4.1,2.86Q192.37,154.94,192.37,160.45Z"/><path class="cls-3" d="M229.67,154.33q0,5.11-2.58,7.85t-7.45,2.73h-1.49v11.63h-6V144.45h8.14Q229.67,144.45,229.67,154.33Zm-11.52,5.4h1.14a4.16,4.16,0,0,0,3.27-1.21,7.69,7.69,0,0,0,.09-7.69,3.7,3.7,0,0,0-3.05-1.22h-1.45v10.12Z"/></svg>