<svg id="Layer_1" data-name="Layer 1" xmlns="http://www.w3.org/2000/svg" viewBox="0 0 144.34 98.41"><defs><style>.cls-1{fill:#7f7f7f;}.cls-2{fill:#999;}</style></defs><title>tbis-logo(grey)</title><path class="cls-1" d="M91.81,59"/><rect class="cls-1" x="49.15" y="16.01" width="6.43" height="24.95"/><rect class="cls-1" x="57.17" y="16.01" width="6.43" height="24.95"/><rect class="cls-1" x="41.75" y="25.89" width="7.76" height="5.23"/><rect class="cls-1" x="63.31" y="25.89" width="7.76" height="5.23"/><rect class="cls-1" x="16.04" y="15.94" width="17.84" height="5.39"/><rect class="cls-1" x="57.17" y="15.94" width="17.28" height="5.39"/><rect class="cls-1" x="57.17" y="35.64" width="17.28" height="5.39"/><path class="cls-1" d="M90.76,27.6"/><path class="cls-1" d="M90.76,29.18"/><path class="cls-1" d="M40.94,65.16a3.46,3.46,0,0,1,2.14,3c0,2-1.46,3.56-5.21,3.56-2.57,0-4.76-2.1-4.76-4.07,0-.6.07-0.73,0.09-1.6l-7.32,0v0c0,1,0,2,0,2.69C25.9,73.88,31.32,78,38,78s12.65-4.15,12.65-9.26c0-4.16-.14-7.57-7.3-10.1H43.24a65.54,65.54,0,0,1-7.11-2.79,3.47,3.47,0,0,1-2.14-3c0-2,2.08-3.56,4.65-3.56s4.65,1.6,4.65,3.56c0,0.6,0,.88,0,1.75l7.32,0v0c0-1,0-1.67,0-2.35,0-5.12-5.42-9.26-12.1-9.26s-12.1,4.15-12.1,9.26c0,4.16,1.16,7.6,7.28,9.74a74.09,74.09,0,0,1,7.2,3.14Z"/><path class="cls-1" d="M67.11,65.16a3.46,3.46,0,0,1,2.14,3c0,2-1.46,3.56-5.21,3.56-2.57,0-4.75-2.1-4.75-4.07,0-.6.07-0.73,0.08-1.6l-7.32,0s0,0,0,0c0,1,0,2,0,2.69,0,5.12,5.42,9.26,12.1,9.26s12.65-4.15,12.65-9.26c0-4.16-.14-7.57-7.31-10.1H69.41a65.55,65.55,0,0,1-7.11-2.79,3.47,3.47,0,0,1-2.14-3c0-2,2.08-3.56,4.65-3.56s4.65,1.6,4.65,3.56c0,0.6,0,.88,0,1.75l7.32,0a0.3,0.3,0,0,0,0,0c0-1,0-1.67,0-2.35,0-5.12-5.42-9.26-12.1-9.26s-12.1,4.15-12.1,9.26c0,4.16,1.16,7.6,7.28,9.74a74.18,74.18,0,0,1,7.2,3.14Z"/><path class="cls-1" d="M114.7,23.68c0-1.66,1.35-3,3.51-3s3.52,1.18,3.71,2.68L122,23.67h6.33a2,2,0,0,1,0-.52c0-4.31-4.56-7.81-10.19-7.81s-10.19,3.49-10.19,7.81l0,10.45a0.22,0.22,0,0,0,0,0,1.69,1.69,0,0,0,0,.48c0,4.31,4.56,7.8,10.19,7.8s10.19-3.49,10.19-7.8l0-8.23h-10v5.23h3.64v2.46c0,1.66-1.7,3-3.86,3s-3.38-1.35-3.38-3Z"/><rect class="cls-1" x="16.04" y="44.06" width="7.93" height="33"/><polygon class="cls-1" points="106.13 77.05 128.51 77.05 128.48 70.51 114.06 70.51 114.06 63.6 124.1 63.63 124.09 57.41 114.06 57.42 114.06 50.32 128.39 50.32 128.44 44.05 106.13 44.05 106.13 77.05"/><path class="cls-1" d="M78.9,68.53c0,5.27,5.78,9.54,12.91,9.54s12.91-4.27,12.91-9.54V44.06H96.78V68c0,2-2.23,3.68-5,3.68s-5-1.65-5-3.68V44.06H78.9V68.53Z"/><rect class="cls-1" x="78.82" y="16.01" width="6.43" height="24.97"/><rect class="cls-1" x="99.65" y="16.01" width="6.43" height="24.95"/><path class="cls-1" d="M85.25,16v5.22H84.16L84.27,16h6.49s6.74-.23,6.74,6v1.2a5.32,5.32,0,0,1-3.09,5.2h0a5.32,5.32,0,0,1,3.09,5.2V35c0,6.22-6.74,6-6.74,6H84.47V35.81h5.75a1,1,0,0,0,1-.84V32a1,1,0,0,0-1-.84h-6V25.89h6a1,1,0,0,0,1-.84v-3a1,1,0,0,0-1-.84h-5v4.62L85.19,26"/><polyline class="cls-2" points="78.78 92.91 0 92.91 0 0 55.3 0 55.67 7.93 7.74 7.93 7.74 85.35 78.78 85.35"/><polyline class="cls-2" points="128.49 85.35 136.23 85.35 136.23 7.93 46.45 7.93 46.27 0 144.34 0 144.34 92.91 128.49 92.91"/><path class="cls-1" d="M81.48,94.69a6.79,6.79,0,0,0,2.9.68c1.6,0,2.41-.84,2.41-2S86,91.47,84.52,90.5c-2.41-1.47-3.32-3.32-3.32-4.92,0-2.83,1.88-5.18,5.55-5.18a5.86,5.86,0,0,1,2.77.63L89,84a4.18,4.18,0,0,0-2.22-.6,1.91,1.91,0,0,0-2.17,1.83c0,1,.52,1.6,2.41,2.75,2.36,1.41,3.19,3.19,3.19,5.05,0,3.22-2.38,5.34-5.81,5.34A7.84,7.84,0,0,1,81,97.65Z"/><path class="cls-1" d="M95.22,80.56v7.07H98.8V80.56h3.43V98.2H98.8V90.82H95.22V98.2H91.79V80.56h3.43Z"/><path class="cls-1" d="M115.29,89.07c0,6.65-2.36,9.34-5.7,9.34-4,0-5.57-4.24-5.57-9.08s1.91-9,5.83-9C114.08,80.35,115.29,85,115.29,89.07Zm-7.72.31c0,4,.76,6,2.15,6s2-2.62,2-6.2c0-3.09-.47-5.89-2-5.89C108.33,83.33,107.57,85.58,107.57,89.38Z"/><path class="cls-1" d="M117.06,80.82a17.9,17.9,0,0,1,3.59-.34c2,0,3.66.29,4.79,1.36A5.09,5.09,0,0,1,127,85.72,5.89,5.89,0,0,1,125.46,90a6,6,0,0,1-4.29,1.7,5.91,5.91,0,0,1-.68,0V98.2h-3.43V80.82Zm3.43,8a4.19,4.19,0,0,0,.58,0c1.73,0,2.49-1.23,2.49-2.88s-0.63-2.75-2.22-2.75a2.57,2.57,0,0,0-.84.13v5.47Z"/><polygon class="cls-1" points="33.96 21.44 28.27 21.46 28.27 40.97 21.84 40.97 21.84 21.44 16.1 21.44 16.1 16.01 33.96 16.01 33.96 21.44"/><rect class="cls-1" x="35.6" y="16.01" width="6.43" height="24.95"/></svg>